<?xml version="1.0" encoding="UTF-8"?>
<svg version="1.1" xmlns="http://www.w3.org/2000/svg" width="499" height="499">
<path d="M0 0 C7.65798459 3.28618496 13.99559541 9.44201648 20.0078125 15.0546875 C21.91000328 16.92041874 21.91000328 16.92041874 24.0390625 17.875 C24.0390625 18.535 24.0390625 19.195 24.0390625 19.875 C24.6990625 19.875 25.3590625 19.875 26.0390625 19.875 C26.0390625 20.535 26.0390625 21.195 26.0390625 21.875 C26.58175781 22.09800781 27.12445313 22.32101563 27.68359375 22.55078125 C30.77944451 24.29123466 33.17504624 26.62852 35.7265625 29.0625 C39.9716304 33.03820422 44.29916047 36.73720155 48.9375 40.25390625 C53.83576371 44.03230669 58.44209189 47.81055364 62.0390625 52.875 C63.3590625 52.545 64.6790625 52.215 66.0390625 51.875 C66.0390625 51.215 66.0390625 50.555 66.0390625 49.875 C67.40234375 48.68359375 67.40234375 48.68359375 69.3515625 47.3125 C81.94081886 38.16872433 93.91375994 27.80918549 105.33203125 17.23828125 C107.0390625 15.875 107.0390625 15.875 109.0390625 15.875 C109.19332642 27.5671415 109.34150271 39.25934307 109.4820261 50.95165825 C109.54747372 56.38155195 109.61497446 61.81140357 109.68725586 67.24121094 C109.75700585 72.48664352 109.82124699 77.73211793 109.88175774 82.97766495 C109.90573118 84.97342479 109.93164979 86.9691623 109.95959663 88.96487045 C109.99856481 91.77195499 110.03045454 94.57904112 110.06079102 97.38623047 C110.08021004 98.60867714 110.08021004 98.60867714 110.10002136 99.8558197 C110.15177289 105.58591288 109.7080524 111.18542929 109.0390625 116.875 C100.66261642 118.30077806 94.32321879 118.2419018 86.0390625 115.875 C86.0390625 110.925 86.0390625 105.975 86.0390625 100.875 C72.1790625 100.38 72.1790625 100.38 58.0390625 99.875 C58.0390625 90.965 58.0390625 82.055 58.0390625 72.875 C55.7290625 74.855 53.4190625 76.835 51.0390625 78.875 C50.3790625 78.875 49.7190625 78.875 49.0390625 78.875 C49.0390625 79.535 49.0390625 80.195 49.0390625 80.875 C47.89263229 82.05514875 46.73945703 83.22960094 45.55078125 84.3671875 C42.86802997 87.04300661 40.4723044 89.97350537 38.0390625 92.875 C33.10577729 92.45214698 31.31704992 90.45791648 28.0390625 86.875 C22.11732603 80.65514407 15.7547249 75.21974097 9.0390625 69.875 C8.07355469 69.10027344 7.10804688 68.32554687 6.11328125 67.52734375 C3.75859324 65.63893059 1.40051519 63.75494173 -0.9609375 61.875 C-4.38767446 63.40239084 -7.01935032 65.41831171 -9.8984375 67.8125 C-10.86523438 68.61429687 -11.83203125 69.41609375 -12.828125 70.2421875 C-16.62858513 73.42804385 -20.40736373 76.6395207 -24.18652344 79.85058594 C-29.93334261 84.72222028 -35.80082332 89.43669463 -41.765625 94.0390625 C-42.67570312 94.74804688 -43.58578125 95.45703125 -44.5234375 96.1875 C-45.34972656 96.82300781 -46.17601562 97.45851563 -47.02734375 98.11328125 C-49.21266313 99.81636525 -49.21266313 99.81636525 -49.9609375 102.875 C-50.6209375 102.875 -51.2809375 102.875 -51.9609375 102.875 C-51.9609375 114.425 -51.9609375 125.975 -51.9609375 137.875 C-55.2609375 138.205 -58.5609375 138.535 -61.9609375 138.875 C-63.63372749 139.1761022 -65.30572572 139.48878392 -66.9609375 139.875 C-66.9609375 142.99607217 -65.49869114 145.37131739 -64.22265625 148.203125 C-63.94122269 148.82975037 -63.65978912 149.45637573 -63.36982727 150.10198975 C-62.77213883 151.43092034 -62.17265653 152.75904537 -61.5715332 154.08642578 C-60.65908563 156.10148457 -59.75189591 158.11884058 -58.84570312 160.13671875 C-56.31046136 165.76601235 -53.7539499 171.36741592 -50.9609375 176.875 C-47.33604342 170.2166864 -44.86379779 163.26476947 -42.44165039 156.10107422 C-41.76956775 154.11355616 -41.08960267 152.12887226 -40.40820312 150.14453125 C-37.98292247 143.07141716 -37.98292247 143.07141716 -35.9609375 135.875 C-30.6809375 135.875 -25.4009375 135.875 -19.9609375 135.875 C-20.70445116 141.07959561 -21.32235497 144.32497134 -23.21875 148.98046875 C-23.67652832 150.1202417 -24.13430664 151.26001465 -24.60595703 152.43432617 C-25.09435059 153.63162354 -25.58274414 154.8289209 -26.0859375 156.0625 C-27.09145689 158.56030921 -28.09000131 161.06085579 -29.0859375 163.5625 C-29.45671921 164.49252083 -29.45671921 164.49252083 -29.83499146 165.44132996 C-32.4043051 171.92486151 -34.71038321 178.49037279 -36.94189453 185.09643555 C-38.87168923 190.78575173 -38.87168923 190.78575173 -39.9609375 191.875 C-43.38796661 192.23669731 -46.82990048 192.24649698 -50.2734375 192.3125 C-51.23701172 192.35826172 -52.20058594 192.40402344 -53.19335938 192.45117188 C-54.58844727 192.4734082 -54.58844727 192.4734082 -56.01171875 192.49609375 C-56.86419189 192.5211499 -57.71666504 192.54620605 -58.5949707 192.57202148 C-62.30450388 191.47918099 -63.12368203 189.18822529 -64.9609375 185.875 C-66.27414705 183.23035673 -67.46986101 180.5462791 -68.640625 177.8359375 C-69.14349533 176.69277573 -69.14349533 176.69277573 -69.65652466 175.52651978 C-70.72170858 173.10332924 -71.77937137 170.676959 -72.8359375 168.25 C-74.22527362 165.0685937 -75.6187867 161.88905667 -77.015625 158.7109375 C-77.35100281 157.9450531 -77.68638062 157.1791687 -78.03192139 156.39007568 C-80.45978118 150.88883661 -83.09098943 145.54522975 -85.93408203 140.24462891 C-86.9609375 137.875 -86.9609375 137.875 -86.9609375 133.875 C-86.3009375 133.875 -85.6409375 133.875 -84.9609375 133.875 C-84.9609375 127.935 -84.9609375 121.995 -84.9609375 115.875 C-87.2709375 115.875 -89.5809375 115.875 -91.9609375 115.875 C-92.20908784 110.30688811 -92.39000478 104.74202209 -92.51025391 99.16967773 C-92.56039277 97.27685471 -92.62852858 95.38441618 -92.71533203 93.49291992 C-93.4197352 77.74329372 -93.4197352 77.74329372 -89.86401367 73.18945312 C-87.30122802 71.41995025 -84.80296196 70.13336625 -81.9609375 68.875 C-80.27805574 67.45958046 -78.62252421 66.00944532 -77.0234375 64.5 C-73.59117788 61.33093399 -70.09600991 58.30964355 -66.4609375 55.375 C-62.866161 52.4668662 -59.37833122 49.48958668 -55.9609375 46.375 C-51.66101959 42.45608748 -47.20174203 38.78329131 -42.6796875 35.125 C-39.17900847 32.22788632 -35.83753982 29.17429566 -32.48046875 26.11328125 C-29.92888833 23.84652842 -27.30922218 21.69959913 -24.6484375 19.5625 C-19.69106254 15.55846638 -15.01179613 11.31478675 -10.37573242 6.94799805 C-2.78664392 -0.17763467 -2.78664392 -0.17763467 0 0 Z " fill="#3C3A3B" transform="translate(236.9609375,119.125)"/>
<path d="M0 0 C0.33 31.02 0.66 62.04 1 94 C8.92 94 16.84 94 25 94 C22.17199019 96.82800981 19.54921507 99.24221485 16.4375 101.6875 C6.71308131 109.39605379 -2.78538345 117.33886777 -12.18408203 125.43847656 C-14.00300648 127.0025853 -15.82680079 128.56081076 -17.65234375 130.1171875 C-22.88639972 134.58231923 -28.09837044 139.05663329 -33.1875 143.6875 C-34.78908821 145.12787223 -36.39333427 146.5652937 -38 148 C-38.95132813 148.85464844 -39.90265625 149.70929688 -40.8828125 150.58984375 C-42.33300781 151.84474609 -42.33300781 151.84474609 -43.8125 153.125 C-44.68519531 153.89070312 -45.55789062 154.65640625 -46.45703125 155.4453125 C-49 157 -49 157 -51.42578125 157.03125 C-54.83472727 155.66560243 -57.53478094 153.65074733 -60.375 151.375 C-60.9529834 150.92133057 -61.5309668 150.46766113 -62.12646484 150.00024414 C-65.73383183 147.12929231 -69.03650292 144.11207328 -72.2109375 140.765625 C-75.29598571 137.72099227 -78.73532632 135.1016295 -82.109375 132.38671875 C-84.99237572 130.00629518 -87.75078833 127.53320218 -90.5 125 C-94.07792463 121.70668301 -97.71539666 118.55348679 -101.5 115.5 C-117.78461538 102.30384615 -117.78461538 102.30384615 -121 96 C-121 95.34 -121 94.68 -121 94 C-102.85 94 -84.7 94 -66 94 C-65.87625 87.503125 -65.7525 81.00625 -65.625 74.3125 C-65.08145924 49.74823878 -65.08145924 49.74823878 -64.0625 38.9375 C-63.98789551 38.10839111 -63.91329102 37.27928223 -63.83642578 36.42504883 C-63.63990405 34.60591669 -63.33442398 32.79889498 -63 31 C-62.34 30.67 -61.68 30.34 -61 30 C-60.505 28.515 -60.505 28.515 -60 27 C-55.125 27.875 -55.125 27.875 -54 29 C-50.54187831 29.33338596 -50.54187831 29.33338596 -47 29 C-46.01 27.515 -46.01 27.515 -45 26 C-43.515 26.495 -43.515 26.495 -42 27 C-42.1065818 28.06580292 -42.1065818 28.06580292 -42.21531677 29.15313721 C-42.93549744 36.92936852 -43.13229918 44.6157583 -43.09765625 52.421875 C-43.0962413 53.64787415 -43.09482635 54.87387329 -43.09336853 56.13702393 C-43.08782315 60.00804201 -43.07528115 63.87899974 -43.0625 67.75 C-43.05747793 70.39322832 -43.05291627 73.03645757 -43.04882812 75.6796875 C-43.03787167 82.11981185 -43.02118896 88.55990161 -43 95 C-42.25234375 94.51789063 -41.5046875 94.03578125 -40.734375 93.5390625 C-39.74953125 92.90742188 -38.7646875 92.27578125 -37.75 91.625 C-36.77546875 90.99851562 -35.8009375 90.37203125 -34.796875 89.7265625 C-32.56478385 88.34865148 -30.36912578 87.11687358 -28 86 C-28.02886795 85.1975737 -28.0577359 84.3951474 -28.08747864 83.56840515 C-28.34919557 75.96396035 -28.54647101 68.36172998 -28.67355824 60.75393963 C-28.74110128 56.84334756 -28.83248648 52.93650781 -28.98071289 49.02807617 C-29.99221069 21.6474806 -29.99221069 21.6474806 -25.28125 15.62231445 C-22.23284326 12.69343775 -18.77496353 10.88468668 -15 9 C-12.71037823 7.35664806 -10.56123032 5.59585248 -8.375 3.8125 C-3.39404553 0 -3.39404553 0 0 0 Z " fill="#18629A" transform="translate(287,228)"/>
<path d="M0 0 C8.61957594 1.57435177 15.80867438 9.42898399 21.96875 15.1796875 C23.87094078 17.04541874 23.87094078 17.04541874 26 18 C26 18.66 26 19.32 26 20 C26.66 20 27.32 20 28 20 C28 20.66 28 21.32 28 22 C28.54269531 22.22300781 29.08539063 22.44601563 29.64453125 22.67578125 C32.74038201 24.41623466 35.13598374 26.75352 37.6875 29.1875 C41.9325679 33.16320422 46.26009797 36.86220155 50.8984375 40.37890625 C55.79670121 44.15730669 60.40302939 47.93555364 64 53 C65.32 52.67 66.64 52.34 68 52 C68 51.34 68 50.68 68 50 C69.36328125 48.80859375 69.36328125 48.80859375 71.3125 47.4375 C83.90175636 38.29372433 95.87469744 27.93418549 107.29296875 17.36328125 C109 16 109 16 111 16 C111.15426392 27.6921415 111.30244021 39.38434307 111.4429636 51.07665825 C111.50841122 56.50655195 111.57591196 61.93640357 111.64819336 67.36621094 C111.71794335 72.61164352 111.78218449 77.85711793 111.84269524 83.10266495 C111.86666868 85.09842479 111.89258729 87.0941623 111.92053413 89.08987045 C111.95950231 91.89695499 111.99139204 94.70404112 112.02172852 97.51123047 C112.03467453 98.32619492 112.04762054 99.14115936 112.06095886 99.9808197 C112.11271039 105.71091288 111.6689899 111.31042929 111 117 C102.62355392 118.42577806 96.28415629 118.3669018 88 116 C88 111.05 88 106.1 88 101 C74.14 100.505 74.14 100.505 60 100 C60 91.09 60 82.18 60 73 C57.69 74.98 55.38 76.96 53 79 C52.34 79 51.68 79 51 79 C51 79.66 51 80.32 51 81 C49.85356979 82.18014875 48.70039453 83.35460094 47.51171875 84.4921875 C44.82896747 87.16800661 42.4332419 90.09850537 40 93 C35.06671479 92.57714698 33.27798742 90.58291648 30 87 C24.07855585 80.78045111 17.71734846 75.34228958 11 70 C9.14563882 68.5210772 7.29146149 67.04192382 5.4375 65.5625 C4.63183594 64.92441406 3.82617188 64.28632813 2.99609375 63.62890625 C1 62 1 62 -1 60 C-0.01 60 0.98 60 2 60 C2 40.53 2 21.06 2 1 C1.34 0.67 0.68 0.34 0 0 Z " fill="#FDAE12" transform="translate(235,119)"/>
<path d="M0 0 C0.99 0.33 1.98 0.66 3 1 C2.92894547 1.71175888 2.85789093 2.42351776 2.78468323 3.15684509 C2.06854027 10.89689249 1.86758089 18.54665178 1.90234375 26.31640625 C1.9037587 27.53529037 1.90517365 28.7541745 1.90663147 30.00999451 C1.91217619 33.86085588 1.92471131 37.71165658 1.9375 41.5625 C1.94252277 44.18033769 1.94708431 46.79817631 1.95117188 49.41601562 C1.96095561 55.14203066 1.97512888 60.86801499 1.99327087 66.5940094 C1.99831072 68.39600061 2 70.19800174 2 72 C1.18885742 72.49040771 0.37771484 72.98081543 -0.45800781 73.48608398 C-3.92070053 76.91053144 -3.61498906 79.2717363 -3.69329834 83.99952698 C-3.68622864 85.06315964 -3.67915894 86.1267923 -3.671875 87.22265625 C-3.68462463 88.31968369 -3.69737427 89.41671112 -3.71051025 90.54698181 C-3.74686007 94.0524164 -3.74951962 97.55689333 -3.75 101.0625 C-3.77160455 104.57131954 -3.80006185 108.07999316 -3.83233643 111.58872986 C-3.85011165 113.77224387 -3.86038296 115.95583421 -3.86248779 118.13941956 C-3.86629456 119.12731979 -3.87010132 120.11522003 -3.87402344 121.13305664 C-3.87448669 122.00257462 -3.87494995 122.87209259 -3.87542725 123.76795959 C-4 126 -4 126 -5 129 C-4.34 129.33 -3.68 129.66 -3 130 C-5.40119759 130.87900983 -6.54434294 131.19475665 -8.9375 130.171875 C-14.6582043 126.22805613 -19.70999307 121.72883113 -24.7734375 116.984375 C-28.04003591 113.93554982 -31.40969129 111.02017581 -34.8125 108.125 C-35.68588013 107.3812915 -35.68588013 107.3812915 -36.5769043 106.62255859 C-37.77464428 105.60275265 -38.97248066 104.58305989 -40.17041016 103.56347656 C-43.92443154 100.35547644 -47.64873527 97.11294488 -51.37182617 93.86914062 C-54.51672065 91.13352168 -57.67839973 88.42358719 -60.8828125 85.7578125 C-61.82543945 84.96793945 -61.82543945 84.96793945 -62.78710938 84.16210938 C-63.96761788 83.1747978 -65.15341214 82.19375332 -66.34570312 81.22070312 C-70.32521458 77.87981985 -73.18713634 74.381375 -76 70 C-76 69.34 -76 68.68 -76 68 C-57.85 68 -39.7 68 -21 68 C-20.87625 61.503125 -20.7525 55.00625 -20.625 48.3125 C-20.08145924 23.74823878 -20.08145924 23.74823878 -19.0625 12.9375 C-18.98789551 12.10839111 -18.91329102 11.27928223 -18.83642578 10.42504883 C-18.63990405 8.60591669 -18.33442398 6.79889498 -18 5 C-17.34 4.67 -16.68 4.34 -16 4 C-15.67 3.01 -15.34 2.02 -15 1 C-10.125 1.875 -10.125 1.875 -9 3 C-5.54187831 3.33338596 -5.54187831 3.33338596 -2 3 C-1.34 2.01 -0.68 1.02 0 0 Z " fill="#0DBEDE" transform="translate(242,254)"/>
<path d="M0 0 C2.47923801 -0.02685095 4.9581884 -0.04676547 7.4375 -0.0625 C8.14455078 -0.07087891 8.85160156 -0.07925781 9.58007812 -0.08789062 C11.38693559 -0.09653588 13.19387603 -0.05220011 15 0 C16.83219646 1.83219646 16.23901328 4.75713741 16.31640625 7.22265625 C16.35830078 8.48271484 16.40019531 9.74277344 16.44335938 11.04101562 C16.48317596 12.38150736 16.52288814 13.7220022 16.5625 15.0625 C16.60568042 16.40691523 16.64929456 17.7513166 16.69335938 19.09570312 C16.79985358 22.3970234 16.9018646 25.69842236 17 29 C18.216875 28.66742188 19.43375 28.33484375 20.6875 27.9921875 C27.80597495 26.22196816 34.69088851 27.01896219 41.12109375 30.65625 C48.24485633 35.75099912 52.09237265 42.53419813 54 51 C55.16760956 60.41309971 53.41496196 67.79866587 47.625 75.3125 C42.38981647 80.67233076 37.06613087 83.78956072 29.4609375 84.10546875 C22.01883169 83.82245909 17.01047413 81.26339488 11 77 C10.67 78.98 10.34 80.96 10 83 C6.7 83 3.4 83 0 83 C-0.33 81.68 -0.66 80.36 -1 79 C-1.763125 79.639375 -2.52625 80.27875 -3.3125 80.9375 C-8.43217841 84.3184197 -14.48543004 84.48593733 -20.4296875 83.6640625 C-26.71718206 81.98884769 -31.09175184 78.11727457 -35 73 C-39.47480285 64.77359475 -38.15867305 53.50168222 -38.13037109 44.4831543 C-38.12492759 42.40992191 -38.13039126 40.3368984 -38.13671875 38.26367188 C-38.13542969 36.95849609 -38.13414062 35.65332031 -38.1328125 34.30859375 C-38.13168457 33.12064209 -38.13055664 31.93269043 -38.12939453 30.70874023 C-38 28 -38 28 -37 27 C-35.0437407 26.90072714 -33.08377091 26.87030271 -31.125 26.875 C-30.05507813 26.87242187 -28.98515625 26.86984375 -27.8828125 26.8671875 C-25 27 -25 27 -22 28 C-21.10603576 31.79573451 -20.90667518 35.25407496 -20.97265625 39.1484375 C-20.99102539 40.90414062 -20.99102539 40.90414062 -21.00976562 42.6953125 C-21.04481078 45.14068587 -21.08384785 47.58600542 -21.12695312 50.03125 C-21.27902901 58.72668914 -21.27902901 58.72668914 -19 67 C-15.31633063 69.45577958 -12.27712976 69.8103156 -8 69 C-3.76490898 65.86971533 -2.38155588 62.97676647 -1 58 C-0.67922617 55.05458482 -0.67922617 55.05458482 -0.68115234 51.99462891 C-0.66128265 50.83387848 -0.64141296 49.67312805 -0.62094116 48.47720337 C-0.60938995 47.23949188 -0.59783875 46.0017804 -0.5859375 44.7265625 C-0.56657135 43.44768158 -0.5472052 42.16880066 -0.5272522 40.85116577 C-0.47771721 37.46792838 -0.43639765 34.08479618 -0.39910889 30.70141602 C-0.35894517 27.24225227 -0.30790956 23.78325037 -0.2578125 20.32421875 C-0.16189296 13.54958356 -0.0768079 6.77487737 0 0 Z M15.125 46.0625 C12.97281613 51.68209121 13.52331466 57.61657332 14.6875 63.4375 C16.81662337 67.5943599 19.6269407 69.54231357 24 71 C27.882287 71.35947102 30.26674697 71.38329136 33.75 69.5625 C37.35066499 65.46174265 38.87335848 61.07992176 39.09765625 55.625 C38.74082292 50.47267484 37.42494314 46.995767 34 43 C31.25981924 40.8366994 29.51347849 40.07647552 26.0625 39.5625 C21.24797812 40.25028884 18.34979013 42.51523086 15.125 46.0625 Z " fill="#27282D" transform="translate(394,228)"/>
<path d="M0 0 C0 32.34 0 64.68 0 98 C-6.6 98 -13.2 98 -20 98 C-20 92.39 -20 86.78 -20 81 C-29.57 81 -39.14 81 -49 81 C-49.11473004 75.07228101 -49.21428233 69.14840338 -49.2746582 63.22045898 C-49.29982071 61.20372475 -49.3339543 59.18708187 -49.37719727 57.1706543 C-49.43777325 54.2736968 -49.46619169 51.37794339 -49.48828125 48.48046875 C-49.51408768 47.57725388 -49.5398941 46.674039 -49.56648254 45.74345398 C-49.56753885 43.39216803 -49.52556959 41.29186502 -49 39 C-46.68041992 37.02075195 -46.68041992 37.02075195 -44 36 C-39.27423569 33.46208954 -35.48356545 30.85831879 -31.578125 27.171875 C-30 26 -30 26 -27 26 C-26.75507813 25.27554688 -26.51015625 24.55109375 -26.2578125 23.8046875 C-22.92903049 16.38212388 -15.76927337 10.53538933 -9.62890625 5.375 C-7.89099423 3.94714425 -7.89099423 3.94714425 -6 2 C-1.44444444 0 -1.44444444 0 0 0 Z " fill="#EB620E" transform="translate(345,137)"/>
<path d="M0 0 C4.95 0 9.9 0 15 0 C15 27.39 15 54.78 15 83 C3 83 3 83 1 82 C1 81.34 1 80.68 1 80 C0.46632812 80.28875 -0.06734375 80.5775 -0.6171875 80.875 C-7.27014001 84.18996596 -13.08119667 85.38086007 -20.3515625 83.33984375 C-28.45133687 80.12498485 -34.69122771 74.85922508 -38.30859375 66.89453125 C-41.02937758 59.43927611 -40.631364 51.43866362 -38 44 C-34.45697703 36.96057279 -29.41958843 31.1825969 -21.9921875 28.19140625 C-13.64803366 25.81904879 -6.9259719 26.99772202 1 30 C0.83628906 28.74316406 0.67257813 27.48632812 0.50390625 26.19140625 C-0.09918182 20.76361366 -0.11185202 15.39279662 -0.0625 9.9375 C-0.05798828 8.97650391 -0.05347656 8.01550781 -0.04882812 7.02539062 C-0.03717726 4.68356617 -0.01924746 2.34177434 0 0 Z M-22.25 45.5625 C-24.76870303 50.50995237 -25.79598472 55.56160699 -24.5234375 61.05859375 C-23.07157195 64.76803047 -21.07472079 67.50178936 -18 70 C-14.27348227 71.24217258 -10.87057926 71.5341253 -7 71 C-2.97102811 68.91090346 -0.56521235 67.26361012 1 63 C1.27007128 60.32203007 1.41539035 57.80272437 1.4375 55.125 C1.47037109 54.43019531 1.50324219 53.73539062 1.53710938 53.01953125 C1.57803203 49.06863456 1.0514864 46.57575733 -1.40234375 43.5546875 C-4.58830101 40.42143029 -5.98670592 39.83724291 -10.3125 39.75 C-15.92250183 39.83990388 -18.53567994 41.33230216 -22.25 45.5625 Z " fill="#121218" transform="translate(84,228)"/>
<path d="M0 0 C1.26972656 -0.00257813 2.53945313 -0.00515625 3.84765625 -0.0078125 C6.9375 0.125 6.9375 0.125 7.9375 1.125 C8.09556531 3.04978813 8.188635 4.9799921 8.25390625 6.91015625 C8.29580078 8.07998047 8.33769531 9.24980469 8.38085938 10.45507812 C8.42017578 11.68677734 8.45949219 12.91847656 8.5 14.1875 C8.54318359 15.42306641 8.58636719 16.65863281 8.63085938 17.93164062 C8.73734198 20.99597335 8.83935424 24.06039073 8.9375 27.125 C9.99195313 26.63773437 11.04640625 26.15046875 12.1328125 25.6484375 C19.07601574 22.68474743 26.01648879 23.58010598 32.96484375 26.21484375 C38.30933216 28.68071662 40.79748288 31.71669594 42.9375 37.125 C43.33377982 40.53454226 43.28746088 43.90740223 43.23046875 47.3359375 C43.22622391 48.30407379 43.22197906 49.27221008 43.21760559 50.26968384 C43.20087956 53.34674473 43.16323831 56.42313872 43.125 59.5 C43.10994532 61.59243842 43.09625829 63.68488717 43.08398438 65.77734375 C43.05099588 70.89348418 42.99925528 76.00912921 42.9375 81.125 C37.6575 81.125 32.3775 81.125 26.9375 81.125 C26.93339111 79.96452148 26.92928223 78.80404297 26.92504883 77.60839844 C26.90326261 73.29919127 26.8489788 68.99089787 26.78491211 64.68212891 C26.76172755 62.81796024 26.7473353 60.9536605 26.74194336 59.08935547 C26.73265685 56.40769735 26.69167581 53.72810194 26.64453125 51.046875 C26.6484639 50.21444275 26.65239655 49.3820105 26.65644836 48.52435303 C26.54231108 43.47988482 26.54231108 43.47988482 23.39331055 39.56738281 C22.58289307 39.09139648 21.77247559 38.61541016 20.9375 38.125 C20.9375 38.785 20.9375 39.445 20.9375 40.125 C20.2775 40.125 19.6175 40.125 18.9375 40.125 C18.9375 39.465 18.9375 38.805 18.9375 38.125 C15.14446275 39.12693437 12.22213659 39.93524227 8.9375 42.125 C8.59986412 45.09794974 8.44836962 47.87242502 8.42578125 50.8515625 C8.40783005 51.71437836 8.38987885 52.57719421 8.37138367 53.46615601 C8.3171148 56.22738731 8.28333243 58.98844418 8.25 61.75 C8.2168415 63.61981603 8.18235322 65.489609 8.14648438 67.359375 C8.06137904 71.94779109 7.99464746 76.53615396 7.9375 81.125 C5.45826199 81.15185095 2.9793116 81.17176547 0.5 81.1875 C-0.20705078 81.19587891 -0.91410156 81.20425781 -1.64257812 81.21289062 C-3.44943559 81.22153588 -5.25637603 81.17720011 -7.0625 81.125 C-9.01473989 79.17276011 -8.24693615 75.42718871 -8.26782227 72.75952148 C-8.27772186 71.98884338 -8.28762146 71.21816528 -8.29782104 70.4241333 C-8.32952701 67.86481853 -8.3542292 65.30548517 -8.37890625 62.74609375 C-8.39946794 60.97631841 -8.42046419 59.20654806 -8.44187927 57.43678284 C-8.49718109 52.7695418 -8.54655446 48.10225586 -8.59472656 43.43493652 C-8.64488253 38.67598454 -8.70059934 33.91709809 -8.75585938 29.15820312 C-8.86354008 19.81385802 -8.96496288 10.4694561 -9.0625 1.125 C-6.07566593 -0.36841703 -3.31850226 -0.00675178 0 0 Z " fill="#232329" transform="translate(306.0625,229.875)"/>
<path d="M0 0 C6.93656964 3.97012667 11.16883504 9.69956696 13.625 17.25 C14.72561125 21.59167506 15.76933495 25.8988301 13.6875 30.0625 C1.8075 30.0625 -10.0725 30.0625 -22.3125 30.0625 C-20.26148858 35.19002854 -18.85886119 37.60743646 -14.125 40.3125 C-7.32994546 42.12451454 -0.18970683 40.9357961 6.6875 40.0625 C6.88085938 40.62839844 7.07421875 41.19429688 7.2734375 41.77734375 C7.66402344 42.87755859 7.66402344 42.87755859 8.0625 44 C8.44535156 45.09634766 8.44535156 45.09634766 8.8359375 46.21484375 C9.54021413 48.24932116 9.54021413 48.24932116 11.6875 49.0625 C11.6875 49.7225 11.6875 50.3825 11.6875 51.0625 C10.511875 51.18625 9.33625 51.31 8.125 51.4375 C5.33780822 51.77371719 3.07809923 52.25796817 0.375 53.125 C-8.66852465 55.42420118 -17.03860582 54.39889555 -25.3125 50.0625 C-32.08389163 45.32629472 -34.86715681 38.7801076 -36.84375 30.9609375 C-38.33815674 22.4360263 -35.54430517 15.45332494 -31.0234375 8.36328125 C-23.44382132 -1.82939896 -11.88882484 -5.27180306 0 0 Z M-20.3125 15.0625 C-20.9725 16.3825 -21.6325 17.7025 -22.3125 19.0625 C-15.7125 19.0625 -9.1125 19.0625 -2.3125 19.0625 C-2.83582645 14.31508256 -2.83582645 14.31508256 -4.875 12.25 C-10.87582293 9.32652216 -15.84242321 10.32947752 -20.3125 15.0625 Z " fill="#25262B" transform="translate(139.3125,257.9375)"/>
<path d="M0 0 C2.42031245 0.03311373 4.83153287 0.10032789 7.25 0.1875 C7.93191406 0.19330078 8.61382812 0.19910156 9.31640625 0.20507812 C12.81148101 0.35777557 14.57864509 0.55866728 17.03393555 3.13037109 C19.138445 6.20207159 20.63370551 9.21171138 22.12890625 12.62109375 C22.40468002 13.24347427 22.6804538 13.8658548 22.96458435 14.50709534 C23.83758688 16.48088657 24.70039284 18.45892904 25.5625 20.4375 C26.43025829 22.41152324 27.30012457 24.38459933 28.17112732 26.35719299 C28.96090412 28.14855675 29.74537668 29.94225629 30.52954102 31.73608398 C31.94086671 34.86874433 33.44101098 37.9385596 35 41 C38.62489408 34.3416864 41.09713971 27.38976947 43.51928711 20.22607422 C44.19136975 18.23855616 44.87133483 16.25387226 45.55273438 14.26953125 C47.97801503 7.19641716 47.97801503 7.19641716 50 0 C55.28 0 60.56 0 66 0 C65.25648634 5.20459561 64.63858253 8.44997134 62.7421875 13.10546875 C62.28440918 14.2452417 61.82663086 15.38501465 61.35498047 16.55932617 C60.86658691 17.75662354 60.37819336 18.9539209 59.875 20.1875 C58.86948061 22.68530921 57.87093619 25.18585579 56.875 27.6875 C56.62781219 28.30751389 56.38062439 28.92752777 56.12594604 29.56632996 C53.5566324 36.04986151 51.25055429 42.61537279 49.01904297 49.22143555 C47.08924827 54.91075173 47.08924827 54.91075173 46 56 C42.57297089 56.36169731 39.13103702 56.37149698 35.6875 56.4375 C34.72392578 56.48326172 33.76035156 56.52902344 32.76757812 56.57617188 C31.83751953 56.59099609 30.90746094 56.60582031 29.94921875 56.62109375 C28.67050903 56.65867798 28.67050903 56.65867798 27.3659668 56.69702148 C23.65534362 55.60385987 22.83797603 53.31493773 21 50 C19.67511903 47.3319884 18.46763595 44.624363 17.28515625 41.890625 C16.94753769 41.1237738 16.60991913 40.35692261 16.2620697 39.5668335 C15.19018225 37.13020094 14.12586902 34.69036061 13.0625 32.25 C11.66088889 29.04540295 10.25534711 25.84255552 8.84765625 22.640625 C8.51287262 21.87592896 8.17808899 21.11123291 7.8331604 20.32336426 C5.6748 15.42500889 3.37592839 10.63779343 0.81030273 5.93652344 C0 4 0 4 0 0 Z " fill="#232228" transform="translate(151,255)"/>
<path d="M0 0 C0.15426392 11.6921415 0.30244021 23.38434307 0.4429636 35.07665825 C0.50841122 40.50655195 0.57591196 45.93640357 0.64819336 51.36621094 C0.71794335 56.61164352 0.78218449 61.85711793 0.84269524 67.10266495 C0.86666868 69.09842479 0.89258729 71.0941623 0.92053413 73.08987045 C0.95950231 75.89695499 0.99139204 78.70404112 1.02172852 81.51123047 C1.03467453 82.32619492 1.04762054 83.14115936 1.06095886 83.9808197 C1.11271039 89.71091288 0.6689899 95.31042929 0 101 C-8.37644608 102.42577806 -14.71584371 102.3669018 -23 100 C-23 95.05 -23 90.1 -23 85 C-36.86 84.505 -36.86 84.505 -51 84 C-51 75.09 -51 66.18 -51 57 C-53.31 58.98 -55.62 60.96 -58 63 C-58.66 63 -59.32 63 -60 63 C-60 63.66 -60 64.32 -60 65 C-61.14643021 66.18014875 -62.29960547 67.35460094 -63.48828125 68.4921875 C-66.17103253 71.16800661 -68.5667581 74.09850537 -71 77 C-75.93328521 76.57714698 -77.72201258 74.58291648 -81 71 C-82.37307847 69.66468794 -83.74820969 68.33148459 -85.125 67 C-87.90954347 64.21019275 -90.38733483 61.6553744 -92 58 C-91.67 57.34 -91.34 56.68 -91 56 C-91.66 55.67 -92.32 55.34 -93 55 C-93 53.68 -93 52.36 -93 51 C-95.475 51.495 -95.475 51.495 -98 52 C-94.25 49 -94.25 49 -92 49 C-92 48.34 -92 47.68 -92 47 C-90.2265625 45.51171875 -90.2265625 45.51171875 -87.625 43.6875 C-86.64144531 42.99011719 -85.65789062 42.29273438 -84.64453125 41.57421875 C-84.07943848 41.17638184 -83.5143457 40.77854492 -82.93212891 40.36865234 C-79.0371035 37.60955298 -75.17909335 34.79872429 -71.3125 32 C-69.72545105 30.85390264 -68.138226 29.70804907 -66.55078125 28.5625 C-65.86669189 28.06878906 -65.18260254 27.57507813 -64.4777832 27.06640625 C-63.99011475 26.71449219 -63.50244629 26.36257812 -63 26 C-61.07613155 26.88026056 -59.16114042 27.77993691 -57.25 28.6875 C-55.64898437 29.43580078 -55.64898437 29.43580078 -54.015625 30.19921875 C-50.82988846 32.10158215 -49.11635901 33.98470208 -47 37 C-45.02 36.505 -45.02 36.505 -43 36 C-43 35.34 -43 34.68 -43 34 C-41.63671875 32.80859375 -41.63671875 32.80859375 -39.6875 31.4375 C-35.06123544 28.10824176 -30.74919727 24.45982164 -26.41796875 20.7578125 C-24 19 -24 19 -21 19 C-21.42152344 19.48210937 -21.84304688 19.96421875 -22.27734375 20.4609375 C-23.09912109 21.40839844 -23.09912109 21.40839844 -23.9375 22.375 C-24.75541016 23.31472656 -24.75541016 23.31472656 -25.58984375 24.2734375 C-27.06958624 25.95632334 -27.06958624 25.95632334 -28 28 C-28.99 28.5878125 -28.99 28.5878125 -30 29.1875 C-33.44507494 31.26889944 -36.42885058 33.71555612 -39.5234375 36.28125 C-42 38 -42 38 -49 41 C-49.33 54.86 -49.66 68.72 -50 83 C-40.43 83 -30.86 83 -21 83 C-21 88.61 -21 94.22 -21 100 C-14.4 100 -7.8 100 -1 100 C-1.33 67.99 -1.66 35.98 -2 3 C-2.99 3 -3.98 3 -5 3 C-2.25 0 -2.25 0 0 0 Z " fill="#F7830B" transform="translate(346,135)"/>
<path d="M0 0 C0 22.11 0 44.22 0 67 C-2.475 67.495 -2.475 67.495 -5 68 C-5.33 68.99 -5.66 69.98 -6 71 C-8.22265625 72.9375 -8.22265625 72.9375 -11.0625 75 C-11.98160156 75.680625 -12.90070313 76.36125 -13.84765625 77.0625 C-16.37812018 78.61777895 -18.44788834 79.62429693 -21.19702148 80.62109375 C-22.26810402 81.01252563 -22.26810402 81.01252563 -23.36082458 81.41186523 C-23.90175247 81.60594971 -24.44268036 81.80003418 -25 82 C-25.13936547 73.90684826 -25.24580323 65.81420242 -25.31087303 57.72014523 C-25.34211267 53.96119065 -25.38444592 50.20306032 -25.45263672 46.44458008 C-25.51809944 42.81350742 -25.55376141 39.1832246 -25.56926346 35.55160713 C-25.58030226 34.17009618 -25.60185957 32.78862578 -25.63438034 31.40745354 C-25.90935642 19.23892444 -25.90935642 19.23892444 -22.18261719 14.78686523 C-20.53414917 13.24189758 -20.53414917 13.24189758 -19 12 C-18.37206543 11.40977051 -17.74413086 10.81954102 -17.09716797 10.21142578 C-16.30270264 9.58469971 -16.30270264 9.58469971 -15.4921875 8.9453125 C-14.60080078 8.24148437 -14.60080078 8.24148437 -13.69140625 7.5234375 C-13.09199219 7.06195313 -12.49257813 6.60046875 -11.875 6.125 C-11.26785156 5.6403125 -10.66070312 5.155625 -10.03515625 4.65625 C-4.06527147 0 -4.06527147 0 0 0 Z " fill="#3A3B3E" transform="translate(286,229)"/>
<path d="M0 0 C0.33 0 0.66 0 1 0 C1 8.25 1 16.5 1 25 C14.86 25 28.72 25 43 25 C42.67 25.66 42.34 26.32 42 27 C41.34 27 40.68 27 40 27 C40 38.55 40 50.1 40 62 C35.05 62.495 35.05 62.495 30 63 C28.576875 63.3403125 28.576875 63.3403125 27.125 63.6875 C25 64 25 64 23.3125 63.0625 C20.16599536 61.61680868 17.32031876 61.53187833 13.875 61.3125 C12.63492188 61.22613281 11.39484375 61.13976562 10.1171875 61.05078125 C7.09211598 60.76155734 7.09211598 60.76155734 5 62 C5 60.68 5 59.36 5 58 C5.66 58 6.32 58 7 58 C7 52.06 7 46.12 7 40 C4.69 40 2.38 40 0 40 C0 26.8 0 13.6 0 0 Z " fill="#EC8210" transform="translate(145,195)"/>
<path d="M0 0 C4.95 0 9.9 0 15 0 C15 10.56 15 21.12 15 32 C15.66 32 16.32 32 17 32 C16.814375 32.5775 16.62875 33.155 16.4375 33.75 C15.94780015 36.26845636 16.33305174 37.55452304 17 40 C17.2034009 42.712012 17.32141007 44.41263885 16.00390625 46.8203125 C13.70432201 51.81318411 14.55858129 58.16641458 15.8125 63.375 C17.02749462 66.06077758 18.39912512 68.52592064 20 71 C17.37684968 72.31157516 15.76966564 71.89649988 12.875 71.5625 C11.96492188 71.46066406 11.05484375 71.35882813 10.1171875 71.25390625 C9.06917969 71.12822266 9.06917969 71.12822266 8 71 C8.33 71.33 8.66 71.66 9 72 C9.07205511 73.68608966 9.08386068 75.37500659 9.0625 77.0625 C9.05347656 77.98160156 9.04445313 78.90070313 9.03515625 79.84765625 C9.02355469 80.55792969 9.01195312 81.26820313 9 82 C6.36 82 3.72 82 1 82 C0.71428571 73.42857143 0.71428571 73.42857143 3 70 C1.27773504 66.75150023 1.27773504 66.75150023 -2 66 C-1.84152588 64.95779297 -1.68305176 63.91558594 -1.51977539 62.84179688 C-0.76334807 56.75705188 -0.76697958 50.65522159 -0.68359375 44.53125 C-0.6524221 42.61717346 -0.6524221 42.61717346 -0.62062073 40.66442871 C-0.56656328 37.29767965 -0.5162401 33.93091805 -0.46777344 30.56408691 C-0.41723342 27.11819529 -0.36171829 23.67238405 -0.30664062 20.2265625 C-0.19987531 13.4844375 -0.09849868 6.74225064 0 0 Z " fill="#191A21" transform="translate(394,228)"/>
<path d="M0 0 C0.33 0 0.66 0 1 0 C1.33 9.24 1.66 18.48 2 28 C4.64 27.34 7.28 26.68 10 26 C17.60858379 25.66823036 24.15332807 27.66464438 29.91015625 32.65625 C36.29917242 39.27586761 39.13955586 46.98599687 39.5 56.125 C39.17910022 64.6675734 35.80474598 70.89757474 30 77 C26.3558226 79.4294516 24.28758728 79.16179575 20 79 C20 79.66 20 80.32 20 81 C18.06280622 81.05406122 16.12518079 81.09282025 14.1875 81.125 C12.56908203 81.15980469 12.56908203 81.15980469 10.91796875 81.1953125 C8 81 8 81 5 79 C5.66 79 6.32 79 7 79 C7 78.34 7 77.68 7 77 C6.34 77 5.68 77 5 77 C5 75.68 5 74.36 5 73 C3.515 73.495 3.515 73.495 2 74 C1.67 72.68 1.34 71.36 1 70 C2.485 69.505 2.485 69.505 4 69 C4.495 68.01 4.495 68.01 5 67 C5.515625 67.33 6.03125 67.66 6.5625 68 C9.96121795 69.39434583 12.35594448 69.44751559 16 69 C20.5205311 65.68494386 22.08750683 62.47495904 23 57 C23.08429488 50.96237925 22.01506412 46.70336083 18 42 C14.78661902 39.64352062 11.91004883 39.60899512 8 40 C4.69898869 41.39924945 4.69898869 41.39924945 2 43 C1.06576355 39.98968256 0.95550089 39.13349732 2 36 C1.34 35.67 0.68 35.34 0 35 C0 34.34 0 33.68 0 33 C0.66 33 1.32 33 2 33 C2 32.34 2 31.68 2 31 C1.34 31 0.68 31 0 31 C0 20.77 0 10.54 0 0 Z " fill="#1C1C23" transform="translate(409,229)"/>
<path d="M0 0 C0 0.66 0 1.32 0 2 C0.89912109 2.4021875 0.89912109 2.4021875 1.81640625 2.8125 C4.03135212 4.01705017 5.25678375 5.14541655 6.9375 7 C10.82760058 11.05218811 15.20834771 14.31956169 19.73217773 17.62304688 C21.18861497 18.70457021 22.59898469 19.8475859 24 21 C24 21.66 24 22.32 24 23 C22.30096977 24.51740976 20.53927277 25.965128 18.75 27.375 C15.94686688 29.59229313 13.26298803 31.7305752 10.765625 34.2890625 C9 36 9 36 7 36 C7 36.66 7 37.32 7 38 C5.64453125 39.359375 5.64453125 39.359375 3.8125 40.75 C3.22082031 41.21921875 2.62914062 41.6884375 2.01953125 42.171875 C0 43 0 43 -2.27734375 42.5 C-5.97892217 40.46067989 -9.11886054 37.93075739 -12.375 35.25 C-13.00921875 34.73695313 -13.6434375 34.22390625 -14.296875 33.6953125 C-18.59547933 30.20379306 -22.80769219 26.61816746 -27 23 C-25.14902992 18.90049232 -22.43419041 16.54810198 -19 13.75 C-18.4227417 13.27199951 -17.8454834 12.79399902 -17.25073242 12.30151367 C-16.07281 11.32892761 -14.89206531 10.35974935 -13.70849609 9.39404297 C-12.12875504 8.10505734 -10.55809776 6.8049604 -8.98828125 5.50390625 C-2.26782531 0 -2.26782531 0 0 0 Z " fill="#1B72A7" transform="translate(238,196)"/>
<path d="M0 0 C5.86501879 0.19087339 8.66540022 2.83488329 12.75 6.625 C17.68576994 11.04781767 22.65205303 15.05240672 28.20703125 18.6953125 C30 20 30 20 31 22 C31.08691001 24.84429357 31.11553802 27.66379176 31.09765625 30.5078125 C31.0962413 31.34843231 31.09482635 32.18905212 31.09336853 33.05514526 C31.08776237 35.74513275 31.07520886 38.43503759 31.0625 41.125 C31.05748579 42.94661338 31.05292275 44.76822807 31.04882812 46.58984375 C31.03779094 51.05992777 31.0205222 55.52994986 31 60 C30.01 60 29.02 60 28 60 C28 54.39 28 48.78 28 43 C18.43 43 8.86 43 -1 43 C-1.02290595 37.0368177 -1.04283396 31.07378689 -1.05493164 25.1105957 C-1.05997278 23.08031702 -1.06680557 21.05004198 -1.07543945 19.01977539 C-1.08751467 16.10822653 -1.09323034 13.1967255 -1.09765625 10.28515625 C-1.10281754 9.3716188 -1.10797882 8.45808136 -1.11329651 7.51686096 C-1.11349168 5.34424573 -1.06211805 3.17172704 -1 1 C-0.67 0.67 -0.34 0.34 0 0 Z " fill="#3D3938" transform="translate(297,175)"/>
<path d="M0 0 C4.95 0 9.9 0 15 0 C15 27.39 15 54.78 15 83 C11.04 83 7.08 83 3 83 C3 82.67 3 82.34 3 82 C6.63 82 10.26 82 14 82 C14 55.27 14 28.54 14 1 C9.71 1 5.42 1 1 1 C1.10828125 2.86591797 1.10828125 2.86591797 1.21875 4.76953125 C1.71180005 13.51875277 2.17731648 22.23268508 2 31 C-3.04468729 33.21474076 -5.85910687 32.85072153 -11 31 C-11 30.67 -11 30.34 -11 30 C-13.64 29.67 -16.28 29.34 -19 29 C-19.41694996 30.59880813 -19.80790856 32.20441261 -20.1875 33.8125 C-20.40792969 34.70582031 -20.62835938 35.59914063 -20.85546875 36.51953125 C-21.28017901 39.06339759 -21.28017901 39.06339759 -19.55078125 40.82421875 C-19.03902344 41.21222656 -18.52726562 41.60023438 -18 42 C-18.61875 42.70125 -19.2375 43.4025 -19.875 44.125 C-23.86546635 49.52386624 -24.43017825 54.06450986 -23.61328125 60.58984375 C-22.62755746 64.46367544 -20.91573468 66.29253209 -18 69 C-13.17549824 70.60816725 -8.8106662 70.80474053 -4.1875 68.75 C-2.00963118 67.00770494 -0.5239984 65.32610282 1 63 C0.46884894 67.51478398 -1.36620292 70.34666857 -4 74 C-4.99 73.01 -4.99 73.01 -6 72 C-11.24884582 71.74643257 -15.75228165 72.19265283 -20.1875 75.0625 C-20.785625 75.701875 -21.38375 76.34125 -22 77 C-21.44198068 79.03789275 -21.44198068 79.03789275 -20 81 C-17.13288112 81.92252193 -17.13288112 81.92252193 -13.875 82.25 C-12.77929688 82.39953125 -11.68359375 82.5490625 -10.5546875 82.703125 C-9.71164063 82.80109375 -8.86859375 82.8990625 -8 83 C-8 83.33 -8 83.66 -8 84 C-17.45552013 84.71064452 -23.92490266 82.71743075 -31.3125 76.75 C-37.04968704 71.43567336 -39.79329451 65.06520805 -40.1875 57.3125 C-39.99030758 47.63214464 -37.17246717 40.00147652 -30.109375 33.171875 C-24.03770132 28.24760422 -17.91099714 26.55960046 -10.09765625 26.73046875 C-6.2120905 27.22973139 -2.64495936 28.61932626 1 30 C0.83628906 28.74316406 0.67257813 27.48632812 0.50390625 26.19140625 C-0.09918182 20.76361366 -0.11185202 15.39279662 -0.0625 9.9375 C-0.05798828 8.97650391 -0.05347656 8.01550781 -0.04882812 7.02539062 C-0.03717726 4.68356617 -0.01924746 2.34177434 0 0 Z " fill="#37383F" transform="translate(84,228)"/>
<path d="M0 0 C0.15426392 11.6921415 0.30244021 23.38434307 0.4429636 35.07665825 C0.50841122 40.50655195 0.57591196 45.93640357 0.64819336 51.36621094 C0.71794335 56.61164352 0.78218449 61.85711793 0.84269524 67.10266495 C0.86666868 69.09842479 0.89258729 71.0941623 0.92053413 73.08987045 C0.95950231 75.89695499 0.99139204 78.70404112 1.02172852 81.51123047 C1.03467453 82.32619492 1.04762054 83.14115936 1.06095886 83.9808197 C1.11271039 89.71091288 0.6689899 95.31042929 0 101 C-8.37644608 102.42577806 -14.71584371 102.3669018 -23 100 C-23 95.05 -23 90.1 -23 85 C-36.86 84.505 -36.86 84.505 -51 84 C-51 75.09 -51 66.18 -51 57 C-53.31 58.98 -55.62 60.96 -58 63 C-58.66 63 -59.32 63 -60 63 C-60 63.66 -60 64.32 -60 65 C-61.14643021 66.18014875 -62.29960547 67.35460094 -63.48828125 68.4921875 C-66.17103253 71.16800661 -68.5667581 74.09850537 -71 77 C-75.31392226 76.5206753 -77.16569547 75.2542015 -80 72 C-79.0925 72.33 -78.185 72.66 -77.25 73 C-73.92954193 74.19605723 -73.92954193 74.19605723 -70 74 C-69.67 72.35 -69.34 70.7 -69 69 C-68.34 69 -67.68 69 -67 69 C-67 68.01 -67 67.02 -67 66 C-66.01 66 -65.02 66 -64 66 C-64 64.68 -64 63.36 -64 62 C-63.34 62 -62.68 62 -62 62 C-61.67 61.34 -61.34 60.68 -61 60 C-60.01 60 -59.02 60 -58 60 C-57.67 58.35 -57.34 56.7 -57 55 C-55.02 54.34 -53.04 53.68 -51 53 C-51 48.38 -51 43.76 -51 39 C-53.31 39 -55.62 39 -58 39 C-57.01 36.03 -56.02 33.06 -55 30 C-51.46399535 31.91135386 -49.21027154 33.62642766 -47 37 C-45.02 36.505 -45.02 36.505 -43 36 C-43 35.34 -43 34.68 -43 34 C-41.63671875 32.80859375 -41.63671875 32.80859375 -39.6875 31.4375 C-35.06123544 28.10824176 -30.74919727 24.45982164 -26.41796875 20.7578125 C-24 19 -24 19 -21 19 C-21.42152344 19.48210937 -21.84304688 19.96421875 -22.27734375 20.4609375 C-23.09912109 21.40839844 -23.09912109 21.40839844 -23.9375 22.375 C-24.75541016 23.31472656 -24.75541016 23.31472656 -25.58984375 24.2734375 C-27.06958624 25.95632334 -27.06958624 25.95632334 -28 28 C-28.66 28.391875 -29.32 28.78375 -30 29.1875 C-33.44507494 31.26889944 -36.42885058 33.71555612 -39.5234375 36.28125 C-42 38 -42 38 -49 41 C-49.33 54.86 -49.66 68.72 -50 83 C-40.43 83 -30.86 83 -21 83 C-21 88.61 -21 94.22 -21 100 C-14.4 100 -7.8 100 -1 100 C-1.33 67.99 -1.66 35.98 -2 3 C-2.99 3 -3.98 3 -5 3 C-2.25 0 -2.25 0 0 0 Z " fill="#E6BC93" transform="translate(346,135)"/>
<path d="M0 0 C1.98 0.66 3.96 1.32 6 2 C6.625 4.3125 6.625 4.3125 7 7 C6.01 8.485 6.01 8.485 5 10 C4.54860541 12.0492094 4.54860541 12.0492094 4.375 14.1875 C4.25125 15.445625 4.1275 16.70375 4 18 C6.64 18 9.28 18 12 18 C12 14.7 12 11.4 12 8 C11.34 8 10.68 8 10 8 C10.33 7.34 10.66 6.68 11 6 C13.64 6.33 16.28 6.66 19 7 C19.495 8.485 19.495 8.485 20 10 C20.99 10 21.98 10 23 10 C23 11.32 23 12.64 23 14 C23.66 14 24.32 14 25 14 C25.495 15.485 25.495 15.485 26 17 C29.96 17.33 33.92 17.66 38 18 C38 17.34 38 16.68 38 16 C39.98 16 41.96 16 44 16 C40.68704706 19.31295294 36.97801445 19.91228988 32.4453125 20.11328125 C25.0107551 19.80789575 20.00780182 17.26149934 14 13 C13.67 14.98 13.34 16.96 13 19 C9.7 19 6.4 19 3 19 C2.67 17.68 2.34 16.36 2 15 C1.236875 15.639375 0.47375 16.27875 -0.3125 16.9375 C-5.2395758 20.21832535 -11.52710623 20.60476254 -17.265625 19.60546875 C-19.1875 19.0625 -19.1875 19.0625 -22 18 C-20.68 17.67 -19.36 17.34 -18 17 C-19.32 16.34 -20.64 15.68 -22 15 C-21.01 14.34 -20.02 13.68 -19 13 C-19 12.01 -19 11.02 -19 10 C-18.01 9.34 -17.02 8.68 -16 8 C-15.67 7.01 -15.34 6.02 -15 5 C-14.00419922 5.08701172 -14.00419922 5.08701172 -12.98828125 5.17578125 C-7.88251083 5.58310864 -7.88251083 5.58310864 -3.22265625 3.88671875 C-1.70538271 2.38431777 -1.70538271 2.38431777 0 0 Z " fill="#24242A" transform="translate(391,292)"/>
<path d="M0 0 C0 32.34 0 64.68 0 98 C-5.61 98 -11.22 98 -17 98 C-17.33 85.13 -17.66 72.26 -18 59 C-15 60 -15 60 -13.75 62.4375 C-13 65 -13 65 -14 67 C-13.34 67.33 -12.68 67.66 -12 68 C-12.185625 69.010625 -12.37125 70.02125 -12.5625 71.0625 C-12.99768247 74.97914227 -12.70853021 78.14244663 -12 82 C-13.485 82.495 -13.485 82.495 -15 83 C-15 84.32 -15 85.64 -15 87 C-14.34 87.33 -13.68 87.66 -13 88 C-13.875 93.75 -13.875 93.75 -15 96 C-10.71 96.33 -6.42 96.66 -2 97 C-2.00222061 95.85185822 -2.00444122 94.70371643 -2.00672913 93.52078247 C-2.02696897 82.71975623 -2.04197622 71.91873382 -2.05181217 61.11769295 C-2.05703885 55.56429379 -2.06413261 50.0109099 -2.07543945 44.45751953 C-2.08627595 39.10184453 -2.09227846 33.74618423 -2.09487724 28.39049911 C-2.09673011 26.34349206 -2.10034809 24.29648584 -2.10573006 22.24948502 C-2.11295057 19.3904265 -2.11399051 16.5314294 -2.11352539 13.67236328 C-2.11712067 12.81928589 -2.12071594 11.9662085 -2.12442017 11.08728027 C-2.11405216 5.22810432 -2.11405216 5.22810432 -1 3 C-2.65 4.32 -4.3 5.64 -6 7 C-6.66 6.67 -7.32 6.34 -8 6 C-6.85675161 4.9970458 -5.71032809 3.99770973 -4.5625 3 C-3.60537109 2.1646875 -3.60537109 2.1646875 -2.62890625 1.3125 C-1 0 -1 0 0 0 Z " fill="#D26F29" transform="translate(345,137)"/>
<path d="M0 0 C0.99 0.33 1.98 0.66 3 1 C2.92894547 1.71175888 2.85789093 2.42351776 2.78468323 3.15684509 C2.06854027 10.89689249 1.86758089 18.54665178 1.90234375 26.31640625 C1.9037587 27.53529037 1.90517365 28.7541745 1.90663147 30.00999451 C1.91217619 33.86085588 1.92471131 37.71165658 1.9375 41.5625 C1.94252277 44.18033769 1.94708431 46.79817631 1.95117188 49.41601562 C1.96095561 55.14203066 1.97512888 60.86801499 1.99327087 66.5940094 C1.99831072 68.39600061 2 70.19800174 2 72 C-0.475 72.99 -0.475 72.99 -3 74 C-2.505 73.01 -2.505 73.01 -2 72 C-1.91426606 69.74879258 -1.89287812 67.49500697 -1.90234375 65.2421875 C-1.90446617 64.24761032 -1.90446617 64.24761032 -1.90663147 63.23294067 C-1.91223246 61.11358137 -1.924785 58.99432741 -1.9375 56.875 C-1.94251488 55.43880361 -1.94707781 54.00260556 -1.95117188 52.56640625 C-1.96220218 49.04423655 -1.97946741 45.52212855 -2 42 C-2.04898438 42.69867188 -2.09796875 43.39734375 -2.1484375 44.1171875 C-2.22320312 45.02726562 -2.29796875 45.93734375 -2.375 46.875 C-2.47941406 48.23238281 -2.47941406 48.23238281 -2.5859375 49.6171875 C-3 52 -3 52 -5 54 C-5.16782889 47.32494807 -5.32779181 40.64974154 -5.48217773 33.97436523 C-5.5356848 31.70153492 -5.59102056 29.42874692 -5.64819336 27.15600586 C-5.72986216 23.89706551 -5.80504251 20.63803164 -5.87890625 17.37890625 C-5.90594131 16.35599991 -5.93297638 15.33309357 -5.96083069 14.27919006 C-5.98092697 13.33829025 -6.00102325 12.39739044 -6.02172852 11.42797852 C-6.04171402 10.59524918 -6.06169952 9.76251984 -6.08229065 8.90455627 C-6 7 -6 7 -5 6 C-3.00041636 5.95919217 -0.99954746 5.95745644 1 6 C0.34 4.35 -0.32 2.7 -1 1 C-0.67 0.67 -0.34 0.34 0 0 Z " fill="#2EDAEC" transform="translate(242,254)"/>
<path d="M0 0 C0.99 0 1.98 0 3 0 C3.33 31.02 3.66 62.04 4 94 C11.92 94 19.84 94 28 94 C21.59081092 100.40918908 14.43223823 105.82974732 7 111 C4.56726022 107.1637565 3.85938979 105.67060255 4.8125 101.125 C5.204375 100.09375 5.59625 99.0625 6 98 C4.68 97.67 3.36 97.34 2 97 C1.67 65.65 1.34 34.3 1 2 C0.34 1.67 -0.32 1.34 -1 1 C-0.67 0.67 -0.34 0.34 0 0 Z " fill="#7492A9" transform="translate(284,228)"/>
<path d="M0 0 C0.495 0.99 0.495 0.99 1 2 C0.34 2 -0.32 2 -1 2 C-0.99476318 2.94915283 -0.98952637 3.89830566 -0.98413086 4.8762207 C-0.96541564 8.5500384 -0.95433734 12.22385248 -0.94506836 15.89770508 C-0.94017427 17.45923581 -0.93346236 19.02076236 -0.92456055 20.58227539 C-0.84233464 35.42646956 -1.44962433 50.13985692 -2 65 C-30.71 65.495 -30.71 65.495 -60 66 C-60 65.34 -60 64.68 -60 64 C-41.85 64 -23.7 64 -5 64 C-4.87625 57.503125 -4.7525 51.00625 -4.625 44.3125 C-4.08145924 19.74823878 -4.08145924 19.74823878 -3.0625 8.9375 C-2.98789551 8.10839111 -2.91329102 7.27928223 -2.83642578 6.42504883 C-2.63990405 4.60591669 -2.33442398 2.79889498 -2 1 C-1.34 0.67 -0.68 0.34 0 0 Z " fill="#B6F2FB" transform="translate(226,258)"/>
<path d="M0 0 C3.67508902 0.63245718 6.10231801 2.23656528 9.125 4.375 C9.99382812 4.98085937 10.86265625 5.58671875 11.7578125 6.2109375 C14 8 14 8 16 11 C14.53984709 10.71758359 13.08190207 10.42373386 11.625 10.125 C10.81289062 9.96257812 10.00078125 9.80015625 9.1640625 9.6328125 C7 9 7 9 5 7 C3.78731882 9.42536236 3.84725908 11.02675111 3.80712891 13.73754883 C3.79106598 14.72229691 3.77500305 15.70704498 3.75845337 16.72163391 C3.71404205 21.22725781 3.67294032 25.73273386 3.64990234 30.23852539 C3.63333751 32.61590358 3.60604088 34.99323186 3.56787109 37.37036133 C3.51314745 40.79534787 3.49123458 44.21916659 3.4765625 47.64453125 C3.45389313 48.70613968 3.43122375 49.76774811 3.40786743 50.86152649 C3.39821145 56.96237392 3.39821145 56.96237392 6.39282227 62.16552734 C8.94496728 63.96127766 10.24587493 64.65656991 13.3125 64.8125 C14.529375 64.874375 15.74625 64.93625 17 65 C16.67 65.66 16.34 66.32 16 67 C16.66 67 17.32 67 18 67 C18.28875 68.0725 18.5775 69.145 18.875 70.25 C19.72820109 73.09400364 20.5636503 75.43508983 22 78 C18.46997646 76.48136287 16.09153315 74.38135506 13.3125 71.75 C8.82738184 67.62475759 4.18209557 64.19187046 -1 61 C0.485 60.505 0.485 60.505 2 60 C2 40.53 2 21.06 2 1 C1.34 0.67 0.68 0.34 0 0 Z " fill="#E7A032" transform="translate(235,119)"/>
<path d="M0 0 C4.875 0.875 4.875 0.875 6 2 C9.66344611 2.13568319 12.50615721 2.16461426 16 1 C16 2.32 16 3.64 16 5 C14.87851563 5.14695312 14.87851563 5.14695312 13.734375 5.296875 C12.74953125 5.44640625 11.7646875 5.5959375 10.75 5.75 C9.77546875 5.88921875 8.8009375 6.0284375 7.796875 6.171875 C4.32840934 7.19885087 3.17891904 8.10650769 1 11 C0.60418771 13.89792482 0.44217706 16.4273035 0.4609375 19.32421875 C0.44914459 20.14388626 0.43735168 20.96355377 0.42520142 21.80805969 C0.38995454 24.43473004 0.38079301 27.06061304 0.375 29.6875 C0.35304921 33.10827188 0.31871666 36.52867716 0.2734375 39.94921875 C0.26310486 40.78589081 0.25277222 41.62256287 0.24212646 42.48458862 C0.08572043 50.73445773 -0.84719238 58.83682198 -2 67 C-2.33 67 -2.66 67 -3 67 C-3.18081734 46.31449585 -2.65615519 25.67237855 -2 5 C-1.34 5 -0.68 5 0 5 C0 3.35 0 1.7 0 0 Z " fill="#27C7DB" transform="translate(227,255)"/>
<path d="M0 0 C0.33 0 0.66 0 1 0 C1 8.25 1 16.5 1 25 C13.54 25 26.08 25 39 25 C39 25.33 39 25.66 39 26 C26.79 26 14.58 26 2 26 C2 29.63 2 33.26 2 37 C4.31 37 6.62 37 9 37 C10.2263757 39.45275141 10.11415314 41.0505781 10.09765625 43.7890625 C10.09443359 44.73007813 10.09121094 45.67109375 10.08789062 46.640625 C10.07951172 47.62546875 10.07113281 48.6103125 10.0625 49.625 C10.05798828 50.61757812 10.05347656 51.61015625 10.04882812 52.6328125 C10.03702161 55.08856722 10.01908582 57.54429106 10 60 C14.29 60 18.58 60 23 60 C22.34 60.66 21.68 61.32 21 62 C17.8125 61.94140625 17.8125 61.94140625 14 61.5625 C9.34598929 60.86076853 9.34598929 60.86076853 5 62 C5 60.68 5 59.36 5 58 C5.66 58 6.32 58 7 58 C7 52.06 7 46.12 7 40 C4.69 40 2.38 40 0 40 C0 26.8 0 13.6 0 0 Z " fill="#CF9459" transform="translate(145,195)"/>
<path d="M0 0 C2.1640625 -0.29296875 2.1640625 -0.29296875 4.625 -0.1875 C5.44226563 -0.16042969 6.25953125 -0.13335937 7.1015625 -0.10546875 C8.04128906 -0.05326172 8.04128906 -0.05326172 9 0 C9 0.66 9 1.32 9 2 C11.97 2.495 11.97 2.495 15 3 C16.15941038 6.47823115 15.70820884 8.45895578 15 12 C9 12 3 12 -3 12 C-2.88541307 10.56163249 -2.75790884 9.12429034 -2.625 7.6875 C-2.55539063 6.88699219 -2.48578125 6.08648437 -2.4140625 5.26171875 C-2 3 -2 3 0 0 Z " fill="#101119" transform="translate(65,257)"/>
<path d="M0 0 C18.81 0 37.62 0 57 0 C54.54586661 2.45413339 53.86311739 2.25728127 50.49023438 2.28710938 C49.55586548 2.30052368 48.62149658 2.31393799 47.65881348 2.32775879 C46.64734253 2.33303589 45.63587158 2.33831299 44.59375 2.34375 C43.55810913 2.3583728 42.52246826 2.37299561 41.45544434 2.38806152 C37.01094902 2.45050914 32.56631207 2.48998262 28.12158203 2.53173828 C24.8829873 2.56538971 21.64469303 2.61052458 18.40625 2.65625 C17.39477905 2.6615271 16.38330811 2.6668042 15.34118652 2.67224121 C14.40681763 2.68565552 13.47244873 2.69906982 12.50976562 2.71289062 C11.68528931 2.72018188 10.86081299 2.72747314 10.01135254 2.73498535 C7.77172377 2.82249087 7.77172377 2.82249087 6 5 C6.66 5.66 7.32 6.32 8 7 C5.6875 7.25 5.6875 7.25 3 7 C1.1875 5.1875 1.1875 5.1875 0 3 C0 2.01 0 1.02 0 0 Z " fill="#35B1C4" transform="translate(167,323)"/>
<path d="M0 0 C2.97 0.33 5.94 0.66 9 1 C9.33 1.99 9.66 2.98 10 4 C10.99 4 11.98 4 13 4 C13 5.32 13 6.64 13 8 C13.66 8 14.32 8 15 8 C15.33 8.99 15.66 9.98 16 11 C19.96 11.33 23.92 11.66 28 12 C28 11.34 28 10.68 28 10 C29.98 10 31.96 10 34 10 C30.68704706 13.31295294 26.97801445 13.91228988 22.4453125 14.11328125 C15.0107551 13.80789575 10.00780182 11.26149934 4 7 C3.67 8.98 3.34 10.96 3 13 C-0.3 13 -3.6 13 -7 13 C-7.33 10.69 -7.66 8.38 -8 6 C-7.34 6 -6.68 6 -6 6 C-6 7.98 -6 9.96 -6 12 C-3.36 12 -0.72 12 2 12 C2 8.7 2 5.4 2 2 C1.34 2 0.68 2 0 2 C0 1.34 0 0.68 0 0 Z " fill="#5C5C5F" transform="translate(401,298)"/>
<path d="M0 0 C0.66 0.33 1.32 0.66 2 1 C2 3.31 2 5.62 2 8 C4.39719432 8.67958603 4.39719432 8.67958603 7 9 C7.66 8.34 8.32 7.68 9 7 C9 6.01 9 5.02 9 4 C9.99 4.33 10.98 4.66 12 5 C11.67 6.32 11.34 7.64 11 9 C11.66 9 12.32 9 13 9 C13 8.34 13 7.68 13 7 C15.475 7.495 15.475 7.495 18 8 C18 8.66 18 9.32 18 10 C17.34 10 16.68 10 16 10 C15.67 11.65 15.34 13.3 15 15 C13 15.875 13 15.875 10 16 C4.24888458 12.90597076 -0.02860901 8.08458392 -4 3 C-2.68 2.01 -1.36 1.02 0 0 Z " fill="#F1840E" transform="translate(261,194)"/>
<path d="M0 0 C0.33 0 0.66 0 1 0 C1.33 9.24 1.66 18.48 2 28 C4.64 27.34 7.28 26.68 10 26 C12.96875 26.0234375 12.96875 26.0234375 15.5 26.375 C16.3559375 26.48585937 17.211875 26.59671875 18.09375 26.7109375 C19.03734375 26.85402344 19.03734375 26.85402344 20 27 C20 27.33 20 27.66 20 28 C18.51886719 28.09087891 18.51886719 28.09087891 17.0078125 28.18359375 C15.72648437 28.26738281 14.44515625 28.35117187 13.125 28.4375 C11.84882813 28.51871094 10.57265625 28.59992188 9.2578125 28.68359375 C6.11699848 28.79206027 6.11699848 28.79206027 4 30 C4.66 30.99 5.32 31.98 6 33 C5.34 33.66 4.68 34.32 4 35 C7.00617269 38.00617269 9.82381598 37.59585316 14 38 C14 38.33 14 38.66 14 39 C12.7625 39.28875 11.525 39.5775 10.25 39.875 C7.27551258 40.61334794 4.666144 41.44474933 2 43 C1.06576355 39.98968256 0.95550089 39.13349732 2 36 C1.34 35.67 0.68 35.34 0 35 C0 34.34 0 33.68 0 33 C0.66 33 1.32 33 2 33 C2 32.34 2 31.68 2 31 C1.34 31 0.68 31 0 31 C0 20.77 0 10.54 0 0 Z " fill="#7D7E84" transform="translate(409,229)"/>
<path d="M0 0 C0.33 0 0.66 0 1 0 C1.02472039 4.64477144 1.04286968 9.28950457 1.05493164 13.93432617 C1.05996014 15.51441108 1.06678378 17.09449134 1.07543945 18.67456055 C1.08756992 20.94581246 1.09324313 23.21700285 1.09765625 25.48828125 C1.10281754 26.19463211 1.10797882 26.90098297 1.11329651 27.6287384 C1.11364803 30.70254391 0.9803186 33.0590442 0 36 C-0.66 36 -1.32 36 -2 36 C-4.78194693 32.01360862 -4.04664477 27.97823189 -3.6875 23.375 C-3.63916016 22.59898437 -3.59082031 21.82296875 -3.54101562 21.0234375 C-3.14828817 15.29657633 -3.14828817 15.29657633 -2 13 C-1.61212744 10.79733684 -1.26290505 8.58775432 -0.9375 6.375 C-0.67259766 4.59222656 -0.67259766 4.59222656 -0.40234375 2.7734375 C-0.26957031 1.85820312 -0.13679687 0.94296875 0 0 Z " fill="#1AD0E4" transform="translate(240,293)"/>
<path d="M0 0 C-0.66 0.66 -1.32 1.32 -2 2 C-1.67 2.66 -1.34 3.32 -1 4 C-4.11180607 7.71023032 -6.23406821 8.49298598 -11 9 C-11.99 9.33 -12.98 9.66 -14 10 C-14.66 9.34 -15.32 8.68 -16 8 C-15.67 7.67 -15.34 7.34 -15 7 C-15.66 6.34 -16.32 5.68 -17 5 C-11.75958464 -0.6653139 -7.49014576 -0.59974477 0 0 Z " fill="#0C0C12" transform="translate(78,300)"/>
<path d="M0 0 C0.33 0 0.66 0 1 0 C1 16.83 1 33.66 1 51 C1.66 51 2.32 51 3 51 C3 49.68 3 48.36 3 47 C4.98 46.34 6.96 45.68 9 45 C9.33 43.35 9.66 41.7 10 40 C11.32 40.99 12.64 41.98 14 43 C12.44877329 44.4909849 10.88352332 45.96738912 9.3125 47.4375 C8.44238281 48.26121094 7.57226562 49.08492188 6.67578125 49.93359375 C4 52 4 52 -1 53 C-0.67 35.51 -0.34 18.02 0 0 Z " fill="#0B80B2" transform="translate(238,330)"/>
<path d="M0 0 C3 1 3 1 4.25 3.4375 C5 6 5 6 4 8 C4.66 8.33 5.32 8.66 6 9 C5.814375 10.010625 5.62875 11.02125 5.4375 12.0625 C5.00231753 15.97914227 5.29146979 19.14244663 6 23 C5.01 23.33 4.02 23.66 3 24 C3 28.95 3 33.9 3 39 C2.34 39 1.68 39 1 39 C0.67 26.13 0.34 13.26 0 0 Z " fill="#C84D1B" transform="translate(327,196)"/>
<path d="M0 0 C3.60156104 2.05803488 6.88992126 4.24535883 10 7 C10 7.66 10 8.32 10 9 C10.66 9 11.32 9 12 9 C12 9.66 12 10.32 12 11 C12.5775 11.226875 13.155 11.45375 13.75 11.6875 C16.5663661 13.33038023 18.08077114 15.39533227 20 18 C18.02 18.33 16.04 18.66 14 19 C13.01 17.68 12.02 16.36 11 15 C9.68 15.33 8.36 15.66 7 16 C6.82984375 15.24074219 6.6596875 14.48148438 6.484375 13.69921875 C6.24203125 12.70535156 5.9996875 11.71148437 5.75 10.6875 C5.51796875 9.70136719 5.2859375 8.71523437 5.046875 7.69921875 C3.85510201 4.62640107 2.67652838 3.79725563 0 2 C0 1.34 0 0.68 0 0 Z " fill="#F9C654" transform="translate(251,130)"/>
<path d="M0 0 C0.99 0.33 1.98 0.66 3 1 C2.92894547 1.71053528 2.85789093 2.42107056 2.78468323 3.15313721 C2.06450256 10.92936852 1.86770082 18.6157583 1.90234375 26.421875 C1.9037587 27.64787415 1.90517365 28.87387329 1.90663147 30.13702393 C1.91217685 34.00804201 1.92471885 37.87899974 1.9375 41.75 C1.94252207 44.39322832 1.94708373 47.03645757 1.95117188 49.6796875 C1.96212833 56.11981185 1.97881104 62.55990161 2 69 C1.01 69.495 1.01 69.495 0 70 C0 46.66666667 0 23.33333333 0 0 Z " fill="#C0FBFD" transform="translate(242,254)"/>
<path d="M0 0 C2.66666667 2 5.33333333 4 8 6 C8.74765625 6.51949219 9.4953125 7.03898438 10.265625 7.57421875 C10.83796875 8.04472656 11.4103125 8.51523438 12 9 C12 9.66 12 10.32 12 11 C10.28358022 12.56197114 8.50061361 14.05139042 6.6875 15.5 C5.70136719 16.2940625 4.71523437 17.088125 3.69921875 17.90625 C1 20 1 20 -2 22 C-1.67 20.35 -1.34 18.7 -1 17 C-0.01 17 0.98 17 2 17 C2.36109542 15.35567294 2.71370076 13.7094792 3.0625 12.0625 C3.25972656 11.14597656 3.45695313 10.22945312 3.66015625 9.28515625 C3.77230469 8.53105469 3.88445312 7.77695313 4 7 C3.67 6.67 3.34 6.34 3 6 C0 2.28 0 2.28 0 0 Z " fill="#4E83A1" transform="translate(250,208)"/>
<path d="M0 0 C5.28 0 10.56 0 16 0 C14.875 7.875 14.875 7.875 13 12 C11 9 11 9 11.375 6.3125 C11.58125 5.549375 11.7875 4.78625 12 4 C9.36 4 6.72 4 4 4 C3.67 4.66 3.34 5.32 3 6 C2.01 6 1.02 6 0 6 C-0.33 6.66 -0.66 7.32 -1 8 C-0.67 5.36 -0.34 2.72 0 0 Z " fill="#5E5E61" transform="translate(201,255)"/>
<path d="M0 0 C0.66 0.33 1.32 0.66 2 1 C1.57847656 1.48210937 1.15695312 1.96421875 0.72265625 2.4609375 C0.17480469 3.09257812 -0.37304688 3.72421875 -0.9375 4.375 C-1.75541016 5.31472656 -1.75541016 5.31472656 -2.58984375 6.2734375 C-4.06958624 7.95632334 -4.06958624 7.95632334 -5 10 C-5.66 10.391875 -6.32 10.78375 -7 11.1875 C-9.72789447 12.83560291 -11.98568961 14.60318671 -14.4375 16.625 C-17.9218586 19.39267615 -20.41605254 20.88246289 -25 21 C-24.67 20.34 -24.34 19.68 -24 19 C-21.9375 18.375 -21.9375 18.375 -20 18 C-20 17.34 -20 16.68 -20 16 C-18.63671875 14.80859375 -18.63671875 14.80859375 -16.6875 13.4375 C-7.98452866 7.14839885 -7.98452866 7.14839885 0 0 Z " fill="#EAB68B" transform="translate(323,153)"/>
<path d="M0 0 C2.475 0.495 2.475 0.495 5 1 C-1.64722114 7.82687576 -1.64722114 7.82687576 -4.87931824 8.24050903 C-5.58325211 8.23606781 -6.28718597 8.23162659 -7.01245117 8.22705078 C-7.81305466 8.22689972 -8.61365814 8.22674866 -9.43852234 8.22659302 C-10.29798965 8.21627045 -11.15745697 8.20594788 -12.04296875 8.1953125 C-12.9265657 8.1924826 -13.81016266 8.18965271 -14.72053528 8.18673706 C-17.54299454 8.17554097 -20.36513662 8.15043751 -23.1875 8.125 C-25.10090688 8.11496946 -27.01431873 8.10584374 -28.92773438 8.09765625 C-33.61861182 8.07560351 -38.30925213 8.04107762 -43 8 C-43 7.67 -43 7.34 -43 7 C-30.13 7 -17.26 7 -4 7 C-4.495 5.515 -4.495 5.515 -5 4 C-4.0409375 3.8453125 -4.0409375 3.8453125 -3.0625 3.6875 C-2.381875 3.460625 -1.70125 3.23375 -1 3 C-0.67 2.01 -0.34 1.02 0 0 Z " fill="#5D3C1E" transform="translate(189,212)"/>
<path d="M0 0 C0.66 0 1.32 0 2 0 C1.6875 1.9375 1.6875 1.9375 1 4 C0.01 4.33 -0.98 4.66 -2 5 C-2 5.66 -2 6.32 -2 7 C-3.14643021 8.18014875 -4.29960547 9.35460094 -5.48828125 10.4921875 C-8.17103253 13.16800661 -10.5667581 16.09850537 -13 19 C-17.31392226 18.5206753 -19.16569547 17.2542015 -22 14 C-21.0925 14.33 -20.185 14.66 -19.25 15 C-15.92954193 16.19605723 -15.92954193 16.19605723 -12 16 C-11.67 14.35 -11.34 12.7 -11 11 C-10.34 11 -9.68 11 -9 11 C-9 10.01 -9 9.02 -9 8 C-8.01 8 -7.02 8 -6 8 C-6 6.68 -6 5.36 -6 4 C-5.34 4 -4.68 4 -4 4 C-3.67 3.34 -3.34 2.68 -3 2 C-2.01 2 -1.02 2 0 2 C0 1.34 0 0.68 0 0 Z " fill="#EDB271" transform="translate(288,193)"/>
<path d="M0 0 C0.33 0 0.66 0 1 0 C1.01981934 0.75095947 1.03963867 1.50191895 1.06005859 2.27563477 C1.15579401 5.70491957 1.26527633 9.13363542 1.375 12.5625 C1.4059375 13.74392578 1.436875 14.92535156 1.46875 16.14257812 C1.66857974 22.08751275 1.97239097 27.38698477 4 33 C4.33 32.34 4.66 31.68 5 31 C5.66 31 6.32 31 7 31 C7.33 30.34 7.66 29.68 8 29 C8 30.32 8 31.64 8 33 C5 35 5 35 2 35 C2 36.32 2 37.64 2 39 C1.34 39 0.68 39 0 39 C0 26.13 0 13.26 0 0 Z " fill="#0F6AA1" transform="translate(239,342)"/>
<path d="M0 0 C1.32 0 2.64 0 4 0 C4 0.66 4 1.32 4 2 C5.32 2.33 6.64 2.66 8 3 C8.33 2.34 8.66 1.68 9 1 C9 2.65 9 4.3 9 6 C9.5775 6.268125 10.155 6.53625 10.75 6.8125 C13.07363365 8.0388622 15.03824646 9.24843434 17 11 C17 11.99 17 12.98 17 14 C18.32 14.33 19.64 14.66 21 15 C21 15.66 21 16.32 21 17 C21.33 17.66 21.66 18.32 22 19 C18.23303261 17.41205122 15.65956183 15.02448488 12.6875 12.25 C9.44469875 9.24627928 6.19918989 6.27817254 2.8125 3.4375 C1.884375 2.633125 0.95625 1.82875 0 1 C0 0.67 0 0.34 0 0 Z " fill="#61CCDD" transform="translate(184,341)"/>
<path d="M0 0 C1.98 0 3.96 0 6 0 C4.77903565 3.66289304 3.39518915 4.5300193 0.375 6.875 C-0.5221875 7.57367188 -1.419375 8.27234375 -2.34375 8.9921875 C-5.52107505 11.39387143 -8.73048588 13.7255554 -12 16 C-12.33 14.68 -12.66 13.36 -13 12 C-12.01 12 -11.02 12 -10 12 C-10 11.34 -10 10.68 -10 10 C-8.625 8.375 -8.625 8.375 -7 7 C-6.34 7 -5.68 7 -5 7 C-5 6.34 -5 5.68 -5 5 C-3.35 4.67 -1.7 4.34 0 4 C0 2.68 0 1.36 0 0 Z " fill="#567A96" transform="translate(303,323)"/>
<path d="M0 0 C1.32 0.33 2.64 0.66 4 1 C3.01 1.33 2.02 1.66 1 2 C1 13.55 1 25.1 1 37 C-3.95 37.495 -3.95 37.495 -9 38 C-9.969375 38.20625 -10.93875 38.4125 -11.9375 38.625 C-14 39 -14 39 -17 38 C-17 37.34 -17 36.68 -17 36 C-11.39 36 -5.78 36 0 36 C0 24.12 0 12.24 0 0 Z " fill="#FFF0D1" transform="translate(184,220)"/>
<path d="M0 0 C0.33 0 0.66 0 1 0 C1 12.54 1 25.08 1 38 C0.01 38 -0.98 38 -2 38 C-2.02685095 35.52076199 -2.04676547 33.0418116 -2.0625 30.5625 C-2.07506836 29.50192383 -2.07506836 29.50192383 -2.08789062 28.41992188 C-2.09653588 26.61306441 -2.05220011 24.80612397 -2 23 C-1.67 22.67 -1.34 22.34 -1 22 C-0.84285346 20.36743242 -0.74914586 18.72864662 -0.68359375 17.08984375 C-0.62075195 15.60581055 -0.62075195 15.60581055 -0.55664062 14.09179688 C-0.49766602 12.53041992 -0.49766602 12.53041992 -0.4375 10.9375 C-0.39431641 9.89271484 -0.35113281 8.84792969 -0.30664062 7.77148438 C-0.20018775 5.18113116 -0.0981724 2.59067814 0 0 Z " fill="#6D381F" transform="translate(327,197)"/>
<path d="M0 0 C0.22036864 3.85645121 -0.39644899 6.49223216 -2 10 C-2.66 10 -3.32 10 -4 10 C-4.33 10.66 -4.66 11.32 -5 12 C-7.5625 12.625 -7.5625 12.625 -10 13 C-10.8125 11.375 -10.8125 11.375 -11 9 C-8.61886917 5.56837027 -4.72701358 0 0 0 Z " fill="#363634" transform="translate(233,123)"/>
<path d="M0 0 C0.33 0 0.66 0 1 0 C1 3.63 1 7.26 1 11 C-4.04468729 13.21474076 -6.85910687 12.85072153 -12 11 C-12 10.67 -12 10.34 -12 10 C-15.3 9.67 -18.6 9.34 -22 9 C-22 8.67 -22 8.34 -22 8 C-13.78702445 5.94675611 -7.74878136 7.09420699 0 10 C0 6.7 0 3.4 0 0 Z " fill="#515055" transform="translate(85,248)"/>
<path d="M0 0 C0.66 0.33 1.32 0.66 2 1 C1.34 2.32 0.68 3.64 0 5 C-0.66 5 -1.32 5 -2 5 C-2.309375 5.61875 -2.61875 6.2375 -2.9375 6.875 C-3.625 8.25 -4.3125 9.625 -5 11 C-4.401875 11.268125 -3.80375 11.53625 -3.1875 11.8125 C-1.00152146 12.99917406 0.41332594 14.09599113 2 16 C2 16.66 2 17.32 2 18 C-0.99220268 16.63629701 -3.29026529 15.05091917 -5.75 12.875 C-6.36359375 12.33617187 -6.9771875 11.79734375 -7.609375 11.2421875 C-8.06828125 10.83226562 -8.5271875 10.42234375 -9 10 C-7.61811547 6.78956118 -6.07578097 4.95063635 -3.375 2.75 C-2.74335938 2.22921875 -2.11171875 1.7084375 -1.4609375 1.171875 C-0.73777344 0.59179688 -0.73777344 0.59179688 0 0 Z " fill="#5A99B7" transform="translate(220,209)"/>
<path d="M0 0 C1.17369141 -0.00386719 1.17369141 -0.00386719 2.37109375 -0.0078125 C4.5625 0.125 4.5625 0.125 7.5625 1.125 C7.5625 3.125 7.5625 3.125 6.0625 4.75 C5.5675 5.20375 5.0725 5.6575 4.5625 6.125 C5.2225 6.125 5.8825 6.125 6.5625 6.125 C6.2325 7.115 5.9025 8.105 5.5625 9.125 C3.2525 9.455 0.9425 9.785 -1.4375 10.125 C-1.1075 9.465 -0.7775 8.805 -0.4375 8.125 C0.5525 8.455 1.5425 8.785 2.5625 9.125 C2.5625 7.475 2.5625 5.825 2.5625 4.125 C0.71524948 3.43340599 0.71524948 3.43340599 -1.4375 3.125 C-2.4275 3.785 -3.4175 4.445 -4.4375 5.125 C-5.4275 4.795 -6.4175 4.465 -7.4375 4.125 C-7.1075 3.135 -6.7775 2.145 -6.4375 1.125 C-4.08479407 -0.05135297 -2.616748 -0.00859359 0 0 Z " fill="#04050B" transform="translate(127.4375,256.875)"/>
<path d="M0 0 C4.62 0 9.24 0 14 0 C14 0.33 14 0.66 14 1 C12.02 1.33 10.04 1.66 8 2 C8.33 2.99 8.66 3.98 9 5 C7.88625 5.2475 6.7725 5.495 5.625 5.75 C1.58116476 6.67137075 1.58116476 6.67137075 0 11 C0 7.37 0 3.74 0 0 Z " fill="#DB760E" transform="translate(147,221)"/>
<path d="M0 0 C1.98 0 3.96 0 6 0 C6 2.31 6 4.62 6 7 C6.66 7.33 7.32 7.66 8 8 C6.375 8.75 6.375 8.75 4 9 C-1.712 5.864 -1.712 5.864 -3 2 C-2.01 2 -1.02 2 0 2 C0 1.34 0 0.68 0 0 Z " fill="#1AB3DB" transform="translate(231,376)"/>
<path d="M0 0 C3 6 3 6 2 16 C11.57 16 21.14 16 31 16 C31 16.33 31 16.66 31 17 C20.77 17 10.54 17 0 17 C0 11.39 0 5.78 0 0 Z " fill="#3C312C" transform="translate(146,202)"/>
<path d="M0 0 C5.61 0.33 11.22 0.66 17 1 C17 2.32 17 3.64 17 5 C14.625 5.625 14.625 5.625 12 6 C11.34 5.34 10.68 4.68 10 4 C8.08505313 3.79527165 8.08505313 3.79527165 6 3.9375 C2.19661017 4.09830508 2.19661017 4.09830508 0 3 C0 2.01 0 1.02 0 0 Z " fill="#265E8A" transform="translate(286,322)"/>
<path d="M0 0 C-0.33 0.99 -0.66 1.98 -1 3 C-1.99 2.67 -2.98 2.34 -4 2 C-4.33 2.99 -4.66 3.98 -5 5 C-6.85753307 6.57263536 -8.78581168 8.06278903 -10.75 9.5 C-11.79671875 10.2734375 -12.8434375 11.046875 -13.921875 11.84375 C-21.2826087 17 -21.2826087 17 -25 17 C-24 14 -24 14 -21.99609375 12.82421875 C-21.15175781 12.44910156 -20.30742187 12.07398438 -19.4375 11.6875 C-13.869562 9.04711679 -8.6555012 5.90551022 -4.46484375 1.3203125 C-3 0 -3 0 0 0 Z " fill="#204A6F" transform="translate(286,296)"/>
<path d="M0 0 C3.67508902 0.63245718 6.10231801 2.23656528 9.125 4.375 C9.99382812 4.98085937 10.86265625 5.58671875 11.7578125 6.2109375 C14 8 14 8 16 11 C14.53984709 10.71758359 13.08190207 10.42373386 11.625 10.125 C10.81289062 9.96257812 10.00078125 9.80015625 9.1640625 9.6328125 C7 9 7 9 5 7 C4.34 7.66 3.68 8.32 3 9 C2.87625 7.88625 2.7525 6.7725 2.625 5.625 C2.3534187 1.96896323 2.3534187 1.96896323 0 0 Z " fill="#F4C258" transform="translate(235,119)"/>
<path d="M0 0 C4.875 0.875 4.875 0.875 6 2 C9.66344611 2.13568319 12.50615721 2.16461426 16 1 C16 2.32 16 3.64 16 5 C10.72 5 5.44 5 0 5 C0 3.35 0 1.7 0 0 Z " fill="#69CFD5" transform="translate(227,255)"/>
<path d="M0 0 C-3.94770696 2.63180464 -6.73980149 1.8008948 -11.1875 1.125 C-11.93708984 1.02058594 -12.68667969 0.91617187 -13.45898438 0.80859375 C-15.30749204 0.5495672 -17.15397432 0.27616034 -19 0 C-19 0.66 -19 1.32 -19 2 C-20.65 2 -22.3 2 -24 2 C-23 0 -23 0 -20.5625 -1.125 C-13.42329234 -2.8784896 -6.90285421 -2.40099277 0 0 Z " fill="#67666B" transform="translate(339,256)"/>
<path d="M0 0 C3.78125025 1.26041675 4.01322327 2.68870545 6 6 C6.99 6.33 7.98 6.66 9 7 C8.01 7.495 8.01 7.495 7 8 C7 9.32 7 10.64 7 12 C6.360625 12.12375 5.72125 12.2475 5.0625 12.375 C4.381875 12.58125 3.70125 12.7875 3 13 C2.67 13.66 2.34 14.32 2 15 C1.34 14.67 0.68 14.34 0 14 C0.350625 13.113125 0.70125 12.22625 1.0625 11.3125 C2.32747636 6.84291686 1.43363484 4.30090452 0 0 Z " fill="#1D6496" transform="translate(247,207)"/>
<path d="M0 0 C0.28875 1.0725 0.5775 2.145 0.875 3.25 C1.72820109 6.09400364 2.5636503 8.43508983 4 11 C0.03209924 9.32127275 -2.86931494 6.91722926 -6 4 C-6 3.01 -6 2.02 -6 1 C-3.92446352 0.4465236 -2.15634036 0 0 0 Z " fill="#E79D45" transform="translate(253,186)"/>
<path d="M0 0 C1.32 0.99 2.64 1.98 4 3 C2.42489875 4.48792961 0.83959136 5.9650606 -0.75 7.4375 C-2.07257813 8.67306641 -2.07257813 8.67306641 -3.421875 9.93359375 C-5.78875032 11.83068018 -7.0509191 12.62102932 -10 13 C-10 12.34 -10 11.68 -10 11 C-9.01 11 -8.02 11 -7 11 C-7 9.68 -7 8.36 -7 7 C-5.02 6.34 -3.04 5.68 -1 5 C-0.67 3.35 -0.34 1.7 0 0 Z " fill="#4E86A8" transform="translate(248,370)"/>
<path d="M0 0 C1.32 0.33 2.64 0.66 4 1 C4 8.92 4 16.84 4 25 C2 23 2 23 1.77294922 20.93701172 C1.78865967 19.69588623 1.78865967 19.69588623 1.8046875 18.4296875 C1.81113281 17.53378906 1.81757813 16.63789063 1.82421875 15.71484375 C1.84097656 14.77769531 1.85773438 13.84054687 1.875 12.875 C1.88402344 11.93011719 1.89304687 10.98523438 1.90234375 10.01171875 C1.92595478 7.67422708 1.95888484 5.33723877 2 3 C0.68 3.99 -0.64 4.98 -2 6 C-2.33 5.01 -2.66 4.02 -3 3 C-1.75 1.4375 -1.75 1.4375 0 0 Z " fill="#145583" transform="translate(282,298)"/>
<path d="M0 0 C5.6626826 2.8313413 9.15619099 5.98756041 13 11 C7.25 10.25 7.25 10.25 5 8 C4.01 8 3.02 8 2 8 C2 6.35 2 4.7 2 3 C1.34 2.67 0.68 2.34 0 2 C0 1.34 0 0.68 0 0 Z " fill="#EFBF73" transform="translate(278,154)"/>
<path d="M0 0 C1.32 0 2.64 0 4 0 C4 0.66 4 1.32 4 2 C4.928125 2 5.85625 2 6.8125 2 C10 3 10 3 11.06640625 4.84765625 C11.80956611 6.88326804 12.45544926 8.90300196 13 11 C9.54691313 9.48729451 7.04375621 7.45279358 4.25 4.9375 C3.45078125 4.22464844 2.6515625 3.51179688 1.828125 2.77734375 C1.22484375 2.19082031 0.6215625 1.60429687 0 1 C0 0.67 0 0.34 0 0 Z " fill="#5FC7D7" transform="translate(171,330)"/>
<path d="M0 0 C0.66 0.33 1.32 0.66 2 1 C0.25 4.875 0.25 4.875 -2 6 C-2 6.99 -2 7.98 -2 9 C-2.99 9.33 -3.98 9.66 -5 10 C-6.71567661 13.50294871 -6.71567661 13.50294871 -8 17 C-9 14 -9 14 -8.14453125 11.66015625 C-3.71950636 3.03070889 -3.71950636 3.03070889 0 0 Z " fill="#717176" transform="translate(54,261)"/>
<path d="M0 0 C0.66 0.33 1.32 0.66 2 1 C2 3.31 2 5.62 2 8 C3.32 8 4.64 8 6 8 C6 9.65 6 11.3 6 13 C-1.48291572 6.84965831 -1.48291572 6.84965831 -4 3 C-2.68 2.01 -1.36 1.02 0 0 Z " fill="#EA9E41" transform="translate(261,194)"/>
<path d="M0 0 C0.99 0.33 1.98 0.66 3 1 C2.125 6.75 2.125 6.75 1 9 C5.29 9.33 9.58 9.66 14 10 C14 10.33 14 10.66 14 11 C11.85423363 11.02685938 9.70837355 11.04633088 7.5625 11.0625 C6.36753906 11.07410156 5.17257812 11.08570313 3.94140625 11.09765625 C1 11 1 11 0 10 C-0.07205511 8.31391034 -0.08386068 6.62499341 -0.0625 4.9375 C-0.05347656 4.01839844 -0.04445313 3.09929687 -0.03515625 2.15234375 C-0.02355469 1.44207031 -0.01195312 0.73179687 0 0 Z " fill="#CC4A0E" transform="translate(329,224)"/>
<path d="M0 0 C0.66 0.33 1.32 0.66 2 1 C1.57847656 1.48210937 1.15695312 1.96421875 0.72265625 2.4609375 C0.17480469 3.09257812 -0.37304688 3.72421875 -0.9375 4.375 C-1.48277344 5.00148437 -2.02804687 5.62796875 -2.58984375 6.2734375 C-4.06958624 7.95632334 -4.06958624 7.95632334 -5 10 C-7.93704456 12.0095568 -9.39222485 13 -13 13 C-8.96476648 8.18876004 -4.95532767 3.86757281 0 0 Z " fill="#E49459" transform="translate(323,153)"/>
<path d="M0 0 C-3.34048103 2.22698735 -4.53285581 2.2711921 -8.4375 2.25 C-9.38496094 2.25515625 -10.33242187 2.2603125 -11.30859375 2.265625 C-14.02552453 1.99748089 -15.67465583 1.38531142 -18 0 C-11.84949963 -1.20009763 -6.12189381 -1.48409547 0 0 Z " fill="#757579" transform="translate(139,310)"/>
<path d="M0 0 C0.33 0.66 0.66 1.32 1 2 C2.32 2 3.64 2 5 2 C5 1.34 5 0.68 5 0 C5.66 0 6.32 0 7 0 C5.48328036 4.55015893 1.83108947 6.50057264 -2 9 C-2 5.61976483 -1.12544378 3.16531063 0 0 Z " fill="#42789C" transform="translate(283,338)"/>
<path d="M0 0 C1.32 0.33 2.64 0.66 4 1 C-0.75 6.75 -0.75 6.75 -3 9 C-4.32 8.67 -5.64 8.34 -7 8 C-4.69 5.36 -2.38 2.72 0 0 Z " fill="#555456" transform="translate(165,179)"/>
<path d="M0 0 C0.66 0.33 1.32 0.66 2 1 C2.66 1 3.32 1 4 1 C4.33 1.66 4.66 2.32 5 3 C4.67 3.66 4.34 4.32 4 5 C1.67145135 5.36526253 -0.66298962 5.69350684 -3 6 C-5.01416562 6.62256028 -7.02015519 7.27566653 -9 8 C-6.14723863 5.06799526 -3.34920216 2.35684596 0 0 Z " fill="#4C7DA6" transform="translate(257,314)"/>
<path d="M0 0 C0 0.99 0 1.98 0 3 C0.556875 3.20625 1.11375 3.4125 1.6875 3.625 C4.92501302 5.55000774 6.68231141 8.03850902 9 11 C5.78348751 9.53461846 3.1955451 7.70270269 0.4375 5.5 C-2.00468505 3.55613602 -4.39977272 1.73348485 -7 0 C-3.86650268 -1.04449911 -3.01031744 -0.93423645 0 0 Z " fill="#CA6324" transform="translate(305,174)"/>
<path d="M0 0 C1.65 0.33 3.3 0.66 5 1 C2.19195732 3.96404505 -0.18315774 6.44499019 -4 8 C-4.33 6.68 -4.66 5.36 -5 4 C-4.0409375 3.8453125 -4.0409375 3.8453125 -3.0625 3.6875 C-2.381875 3.460625 -1.70125 3.23375 -1 3 C-0.67 2.01 -0.34 1.02 0 0 Z " fill="#616160" transform="translate(189,212)"/>
<path d="M0 0 C0.33 0 0.66 0 1 0 C1 4.29 1 8.58 1 13 C-1.31 12.67 -3.62 12.34 -6 12 C-4.33333333 10.33333333 -2.66666667 8.66666667 -1 7 C-0.59952556 4.67724823 -0.2602896 2.34260643 0 0 Z " fill="#040406" transform="translate(347,297)"/>
<path d="M0 0 C0.6875 1.75 0.6875 1.75 1 4 C-0.63682664 6.70076396 -2.71984815 8.82842681 -5 11 C-5.33 10.34 -5.66 9.68 -6 9 C-8.97 9 -11.94 9 -15 9 C-15 8.67 -15 8.34 -15 8 C-14.32453125 7.90203125 -13.6490625 7.8040625 -12.953125 7.703125 C-6.02142581 6.63891862 -6.02142581 6.63891862 -1 2 C-0.67 1.34 -0.34 0.68 0 0 Z " fill="#747378" transform="translate(84,291)"/>
<path d="M0 0 C0.66 0.33 1.32 0.66 2 1 C1.67 1.66 1.34 2.32 1 3 C1.598125 3.268125 2.19625 3.53625 2.8125 3.8125 C4.99847854 4.99917406 6.41332594 6.09599113 8 8 C8 8.66 8 9.32 8 10 C4.56404834 8.47291037 1.88087546 6.40072955 -1 4 C-0.67 2.68 -0.34 1.36 0 0 Z " fill="#4B8EB0" transform="translate(214,217)"/>
<path d="M0 0 C0.33 0 0.66 0 1 0 C1.24900646 1.93505023 1.47356242 3.87325934 1.6875 5.8125 C1.81511719 6.89144531 1.94273437 7.97039062 2.07421875 9.08203125 C2 12 2 12 0.64453125 13.88671875 C-1 15 -1 15 -3 15 C-2.01 10.05 -1.02 5.1 0 0 Z " fill="#616065" transform="translate(433,280)"/>
<path d="M0 0 C0.99 0.99 1.98 1.98 3 3 C1.07423885 5.43929746 -0.80090595 7.80090595 -3 10 C-3.66 8.35 -4.32 6.7 -5 5 C-3.33333333 3.33333333 -1.66666667 1.66666667 0 0 Z " fill="#44474B" transform="translate(63,267)"/>
<path d="M0 0 C0.99 0 1.98 0 3 0 C3 0.99 3 1.98 3 3 C2.01 3 1.02 3 0 3 C-0.33 4.65 -0.66 6.3 -1 8 C-2.32 8 -3.64 8 -5 8 C-5.33 6.68 -5.66 5.36 -6 4 C-5.38125 3.896875 -4.7625 3.79375 -4.125 3.6875 C-1.63473516 3.12474627 -1.63473516 3.12474627 0 0 Z " fill="#176597" transform="translate(249,222)"/>
<path d="M0 0 C1.32 0 2.64 0 4 0 C4 0.99 4 1.98 4 3 C4.66 3 5.32 3 6 3 C6 2.34 6 1.68 6 1 C6.66 1 7.32 1 8 1 C8 1.66 8 2.32 8 3 C8.66 3 9.32 3 10 3 C10 3.66 10 4.32 10 5 C7.8125 5.8125 7.8125 5.8125 5 6 C2.1875 3.625 2.1875 3.625 0 1 C0 0.67 0 0.34 0 0 Z " fill="#E4861D" transform="translate(266,204)"/>
<path d="M0 0 C3.14716526 6.29433052 3.14716526 6.29433052 2.6875 11.0625 C2.60886719 11.96097656 2.53023437 12.85945312 2.44921875 13.78515625 C2.30097656 14.51605469 2.15273437 15.24695313 2 16 C1.34 16.33 0.68 16.66 0 17 C0 11.39 0 5.78 0 0 Z " fill="#2D2B2B" transform="translate(146,202)"/>
<path d="M0 0 C0.66 0 1.32 0 2 0 C1.6875 1.9375 1.6875 1.9375 1 4 C0.01 4.33 -0.98 4.66 -2 5 C-2 5.66 -2 6.32 -2 7 C-3.98 7.99 -3.98 7.99 -6 9 C-6 7.35 -6 5.7 -6 4 C-5.34 4 -4.68 4 -4 4 C-3.67 3.34 -3.34 2.68 -3 2 C-2.01 2 -1.02 2 0 2 C0 1.34 0 0.68 0 0 Z " fill="#ECA75A" transform="translate(288,193)"/>
<path d="M0 0 C1.32 0.66 2.64 1.32 4 2 C1.36 4.31 -1.28 6.62 -4 9 C-4.33 8.01 -4.66 7.02 -5 6 C-4.34 6 -3.68 6 -3 6 C-3 4.68 -3 3.36 -3 2 C-2.01 2 -1.02 2 0 2 C0 1.34 0 0.68 0 0 Z " fill="#5887A6" transform="translate(277,346)"/>
<path d="M0 0 C0 1.65 0 3.3 0 5 C-1.98 5 -3.96 5 -6 5 C-6 4.34 -6 3.68 -6 3 C-6.66 2.67 -7.32 2.34 -8 2 C-1.125 0 -1.125 0 0 0 Z " fill="#E55312" transform="translate(343,229)"/>
<path d="M0 0 C3.7952131 1.49097658 5.61042731 3.75700849 8 7 C6.02 7.33 4.04 7.66 2 8 C1.34 7.01 0.68 6.02 0 5 C0.66 4.34 1.32 3.68 2 3 C1.34 2.01 0.68 1.02 0 0 Z " fill="#F8CE5F" transform="translate(263,141)"/>
<path d="M0 0 C0.99 0 1.98 0 3 0 C2.67 2.97 2.34 5.94 2 9 C1.34 8.01 0.68 7.02 0 6 C-0.66 5.34 -1.32 4.68 -2 4 C-3.98 4.99 -3.98 4.99 -6 6 C-4 4 -2 2 0 0 Z " fill="#66584D" transform="translate(234,120)"/>
<path d="M0 0 C0.66 0.33 1.32 0.66 2 1 C0.73046875 2.49739583 -0.5390625 3.99479167 -1.80859375 5.4921875 C-3.0878152 7.00594079 -3.0878152 7.00594079 -4 9 C-6.31 9 -8.62 9 -11 9 C-7.25 6 -7.25 6 -5 6 C-5 5.34 -5 4.68 -5 4 C-3.37373596 2.61767557 -1.7074998 1.28062485 0 0 Z " fill="#F38D07" transform="translate(259,178)"/>
<path d="M0 0 C4.95 0.99 4.95 0.99 10 2 C10 2.66 10 3.32 10 4 C2.25 4.125 2.25 4.125 0 3 C0 2.01 0 1.02 0 0 Z " fill="#306794" transform="translate(286,322)"/>
<path d="M0 0 C0.33 0 0.66 0 1 0 C1.02703381 1.93742341 1.04641125 3.87495479 1.0625 5.8125 C1.07410156 6.89144531 1.08570313 7.97039062 1.09765625 9.08203125 C1 12 1 12 0 15 C-0.66 15 -1.32 15 -2 15 C-2 12.03 -2 9.06 -2 6 C-1.67 6 -1.34 6 -1 6 C-0.67 4.02 -0.34 2.04 0 0 Z " fill="#34CEE0" transform="translate(240,314)"/>
<path d="M0 0 C2.31 0 4.62 0 7 0 C7 0.66 7 1.32 7 2 C8.98 2 10.96 2 13 2 C13 2.33 13 2.66 13 3 C9.04 3 5.08 3 1 3 C0.67 2.01 0.34 1.02 0 0 Z " fill="#2F2E33" transform="translate(66,308)"/>
<path d="M0 0 C0 2 0 4 0 6 C-0.66 6 -1.32 6 -2 6 C-2.33 6.99 -2.66 7.98 -3 9 C-4.32 8.34 -5.64 7.68 -7 7 C-4.66666667 4.66666667 -2.33333333 2.33333333 0 0 Z " fill="#070710" transform="translate(58,260)"/>
<path d="M0 0 C0.66 0.33 1.32 0.66 2 1 C-0.49825283 4.21203935 -3.0702992 7.17493137 -6 10 C-6.99 9.67 -7.98 9.34 -9 9 C-6 6 -3 3 0 0 Z " fill="#302F32" transform="translate(187,162)"/>
<path d="M0 0 C-1.49097658 3.7952131 -3.75700849 5.61042731 -7 8 C-7 6.35 -7 4.7 -7 3 C-6.01 3 -5.02 3 -4 3 C-4 2.34 -4 1.68 -4 1 C-2 0 -2 0 0 0 Z " fill="#487DA6" transform="translate(263,361)"/>
<path d="M0 0 C0 2.62113708 -0.31292445 4.50935112 -1 7 C-4.65316671 5.75023244 -5.78065836 5.32901247 -8 2 C-7.13375 2.3403125 -7.13375 2.3403125 -6.25 2.6875 C-3.87827523 3.26505193 -3.87827523 3.26505193 -1.75 1.5625 C-1.1725 1.046875 -0.595 0.53125 0 0 Z " fill="#18B7D7" transform="translate(211,354)"/>
<path d="M0 0 C1.32 0 2.64 0 4 0 C4 0.66 4 1.32 4 2 C5.32 2.33 6.64 2.66 8 3 C8.33 2.34 8.66 1.68 9 1 C8.67 2.32 8.34 3.64 8 5 C6.68 5 5.36 5 4 5 C1.75 2.5 1.75 2.5 0 0 Z " fill="#4FC8DB" transform="translate(184,341)"/>
<path d="M0 0 C2 3 2 3 3 6 C3.66 6.33 4.32 6.66 5 7 C5 7.66 5 8.32 5 9 C2.36 9 -0.28 9 -3 9 C-2.34 8.67 -1.68 8.34 -1 8 C-0.53476937 6.10466658 -0.53476937 6.10466658 -0.375 3.9375 C-0.25125 2.638125 -0.1275 1.33875 0 0 Z " fill="#939393" transform="translate(146,300)"/>
<path d="M0 0 C0.99 0.33 1.98 0.66 3 1 C2.04882866 2.1725131 1.08882991 3.33787015 0.125 4.5 C-0.40867188 5.1496875 -0.94234375 5.799375 -1.4921875 6.46875 C-1.98976562 6.9740625 -2.48734375 7.479375 -3 8 C-3.66 8 -4.32 8 -5 8 C-4.67 6.35 -4.34 4.7 -4 3 C-3.01 3 -2.02 3 -1 3 C-0.67 2.01 -0.34 1.02 0 0 Z " fill="#07070D" transform="translate(205,258)"/>
<path d="M0 0 C0.33 0 0.66 0 1 0 C1.19335938 0.61488281 1.38671875 1.22976562 1.5859375 1.86328125 C1.84632813 2.67152344 2.10671875 3.47976562 2.375 4.3125 C2.63023437 5.11300781 2.88546875 5.91351563 3.1484375 6.73828125 C3.98831811 9.22724528 3.98831811 9.22724528 6 12 C2.56404834 10.47291037 -0.11912454 8.40072955 -3 6 C-2.01 6 -1.02 6 0 6 C0 4.02 0 2.04 0 0 Z " fill="#EBC06E" transform="translate(237,173)"/>
<path d="M0 0 C0.66 0.33 1.32 0.66 2 1 C-0.20802491 4.37014328 -2.41682865 6.16247623 -6 8 C-6.66 8 -7.32 8 -8 8 C-6.88333826 4.65001479 -6.25305075 4.20659778 -3.4375 2.3125 C-2.79683594 1.87550781 -2.15617187 1.43851563 -1.49609375 0.98828125 C-1.00238281 0.66214844 -0.50867188 0.33601562 0 0 Z " fill="#F38B06" transform="translate(273,168)"/>
<path d="M0 0 C3.99455527 0.61454696 6.74466336 2.70646737 10 5 C7.50907189 6.24546405 6.58919267 5.7767578 4 5 C3.67 6.32 3.34 7.64 3 9 C2.87625 7.88625 2.7525 6.7725 2.625 5.625 C2.3534187 1.96896323 2.3534187 1.96896323 0 0 Z " fill="#F0CA75" transform="translate(235,119)"/>
<path d="M0 0 C0.66 0.33 1.32 0.66 2 1 C2.625 3.5625 2.625 3.5625 3 6 C1.35 6.33 -0.3 6.66 -2 7 C-2.33 5.02 -2.66 3.04 -3 1 C-2.01 0.67 -1.02 0.34 0 0 Z " fill="#070708" transform="translate(144,299)"/>
<path d="M0 0 C1.65 0.99 3.3 1.98 5 3 C4.6875 4.875 4.6875 4.875 4 7 C3.01 7.66 2.02 8.32 1 9 C0.67 6.03 0.34 3.06 0 0 Z " fill="#424247" transform="translate(437,297)"/>
<path d="M0 0 C3.3 0.33 6.6 0.66 10 1 C10 1.33 10 1.66 10 2 C8.01432292 2.48828125 6.02864583 2.9765625 4.04296875 3.46484375 C2.34316798 3.91010705 0.66698046 4.44433985 -1 5 C-1.33 4.01 -1.66 3.02 -2 2 C-1.34 2 -0.68 2 0 2 C0 1.34 0 0.68 0 0 Z " fill="#626366" transform="translate(413,266)"/>
<path d="M0 0 C0.99 0.66 1.98 1.32 3 2 C3 4 3 4 1.625 5.625 C0 7 0 7 -2 7 C-2.33 5.02 -2.66 3.04 -3 1 C-2.01 0.67 -1.02 0.34 0 0 Z " fill="#323133" transform="translate(188,208)"/>
<path d="M0 0 C5.52628901 1.19194469 8.17819158 2.5991297 12 7 C11.67 7.66 11.34 8.32 11 9 C9.16384919 7.69144447 7.33114211 6.37805538 5.5 5.0625 C4.4790625 4.33160156 3.458125 3.60070312 2.40625 2.84765625 C1.6121875 2.23792969 0.818125 1.62820312 0 1 C0 0.67 0 0.34 0 0 Z " fill="#DA6827" transform="translate(316,187)"/>
<path d="M0 0 C0 0.66 0 1.32 0 2 C1.65 2 3.3 2 5 2 C1.1496895 4.56687367 -0.58569763 3.83288724 -5 3 C-2.25 0 -2.25 0 0 0 Z " fill="#313236" transform="translate(121,306)"/>
<path d="M0 0 C1.32 0.33 2.64 0.66 4 1 C4 2.32 4 3.64 4 5 C2.02 5 0.04 5 -2 5 C-1.34 3.35 -0.68 1.7 0 0 Z " fill="#0C0B10" transform="translate(193,304)"/>
<path d="M0 0 C0.66 0 1.32 0 2 0 C2 0.66 2 1.32 2 2 C2.99 2.33 3.98 2.66 5 3 C4.01 3.495 4.01 3.495 3 4 C2.67 4.99 2.34 5.98 2 7 C0.68 5.68 -0.64 4.36 -2 3 C-1.34 2.01 -0.68 1.02 0 0 Z " fill="#5794B4" transform="translate(236,196)"/>
<path d="M0 0 C2.0625 0.4375 2.0625 0.4375 4 1 C3.51917969 1.37769531 3.03835938 1.75539062 2.54296875 2.14453125 C0.46337042 4.64531405 0.50158423 6.47306804 0.3125 9.6875 C0.24675781 10.68136719 0.18101562 11.67523438 0.11328125 12.69921875 C0.07589844 13.45847656 0.03851563 14.21773437 0 15 C-0.33 15 -0.66 15 -1 15 C-1.02685412 12.68756208 -1.04632841 10.3750373 -1.0625 8.0625 C-1.07410156 6.77472656 -1.08570313 5.48695313 -1.09765625 4.16015625 C-1 1 -1 1 0 0 Z " fill="#613C21" transform="translate(297,175)"/>
<path d="M0 0 C0.99 0 1.98 0 3 0 C3 0.66 3 1.32 3 2 C5.31 2 7.62 2 10 2 C10 2.33 10 2.66 10 3 C6.37 3.33 2.74 3.66 -1 4 C-0.67 2.68 -0.34 1.36 0 0 Z " fill="#6D6E74" transform="translate(67,265)"/>
<path d="M0 0 C3.3 0 6.6 0 10 0 C8.515 1.485 8.515 1.485 7 3 C3.3125 2.6875 3.3125 2.6875 0 2 C0 1.34 0 0.68 0 0 Z " fill="#FCF4E0" transform="translate(167,256)"/>
<path d="M0 0 C2.2893323 1.14466615 3.15392551 2.15392551 5 4 C4.01 5.485 4.01 5.485 3 7 C2.01 7 1.02 7 0 7 C0 4.69 0 2.38 0 0 Z " fill="#E5740B" transform="translate(155,248)"/>
<path d="M0 0 C2.88437779 1.29299694 4.87219421 2.65941363 7 5 C4.36 4.67 1.72 4.34 -1 4 C-0.67 2.68 -0.34 1.36 0 0 Z " fill="#533324" transform="translate(301,176)"/>
<path d="M0 0 C3.3 0.99 6.6 1.98 10 3 C9.67 3.66 9.34 4.32 9 5 C4.68607774 4.5206753 2.83430453 3.2542015 0 0 Z " fill="#77C5DB" transform="translate(229,380)"/>
<path d="M0 0 C0.66 0.33 1.32 0.66 2 1 C2 1.66 2 2.32 2 3 C2.66 3 3.32 3 4 3 C4.33 4.32 4.66 5.64 5 7 C2.03 6.505 2.03 6.505 -1 6 C-1 3 -1 3 0 0 Z " fill="#313033" transform="translate(412,303)"/>
<path d="M0 0 C0.66 0 1.32 0 2 0 C3.35439668 2.70879335 3.06501451 5.00933268 3 8 C1.68 7.01 0.36 6.02 -1 5 C-0.67 3.35 -0.34 1.7 0 0 Z " fill="#07060F" transform="translate(443,274)"/>
<path d="M0 0 C0.66 0.33 1.32 0.66 2 1 C2 1.66 2 2.32 2 3 C3.65 3.33 5.3 3.66 7 4 C7 4.33 7 4.66 7 5 C2.545 5.495 2.545 5.495 -2 6 C-1.125 1.125 -1.125 1.125 0 0 Z " fill="#5B5B60" transform="translate(124,264)"/>
<path d="M0 0 C2.97 0 5.94 0 9 0 C8.01 1.485 8.01 1.485 7 3 C6.34 2.67 5.68 2.34 5 2 C5 2.66 5 3.32 5 4 C4.01 3.67 3.02 3.34 2 3 C2.33 2.34 2.66 1.68 3 1 C2.01 0.67 1.02 0.34 0 0 Z " fill="#0F0D10" transform="translate(152,257)"/>
<path d="M0 0 C-0.66 1.32 -1.32 2.64 -2 4 C-2.99 3.67 -3.98 3.34 -5 3 C-2.25 0 -2.25 0 0 0 Z M-8 4 C-7.01 4.33 -6.02 4.66 -5 5 C-6.32 5.99 -7.64 6.98 -9 8 C-9.66 7.67 -10.32 7.34 -11 7 C-10.01 6.01 -9.02 5.02 -8 4 Z " fill="#D1620A" transform="translate(344,140)"/>
<path d="M0 0 C2.875 0.1875 2.875 0.1875 6 1 C7.375 3.5625 7.375 3.5625 8 6 C4.63408134 4.55746343 2.48952921 2.66735273 0 0 Z " fill="#69CCE0" transform="translate(221,374)"/>
<path d="M0 0 C1.65 0.33 3.3 0.66 5 1 C3.35 2.65 1.7 4.3 0 6 C-1 3 -1 3 0 0 Z " fill="#497EA4" transform="translate(267,354)"/>
<path d="M0 0 C1.32 0.33 2.64 0.66 4 1 C3.67 1.99 3.34 2.98 3 4 C0.69 4.33 -1.62 4.66 -4 5 C-3.67 4.34 -3.34 3.68 -3 3 C-2.01 3.33 -1.02 3.66 0 4 C0 2.68 0 1.36 0 0 Z " fill="#090C12" transform="translate(130,262)"/>
<path d="M0 0 C0.99 0.33 1.98 0.66 3 1 C2.67 4.96 2.34 8.92 2 13 C1.67 13 1.34 13 1 13 C0.83147753 11.39602723 0.66525114 9.7918131 0.5 8.1875 C0.4071875 7.29417969 0.314375 6.40085937 0.21875 5.48046875 C0 3 0 3 0 0 Z " fill="#CEF4F4" transform="translate(242,254)"/>
<path d="M0 0 C1.65 0 3.3 0 5 0 C5 0.99 5 1.98 5 3 C3.02 3.33 1.04 3.66 -1 4 C-0.67 2.68 -0.34 1.36 0 0 Z " fill="#30312E" transform="translate(230,176)"/>
<path d="M0 0 C4.8 2.46153846 4.8 2.46153846 5.8125 5.1875 C5.874375 5.785625 5.93625 6.38375 6 7 C4.68 7.33 3.36 7.66 2 8 C2 6.35 2 4.7 2 3 C1.34 2.67 0.68 2.34 0 2 C0 1.34 0 0.68 0 0 Z " fill="#F9C252" transform="translate(278,154)"/>
<path d="M0 0 C2.97 0.495 2.97 0.495 6 1 C6.33 2.65 6.66 4.3 7 6 C3.63279613 4.60667426 2.0140476 3.0210714 0 0 Z " fill="#66D1E2" transform="translate(206,360)"/>
<path d="M0 0 C2.1875 0.3125 2.1875 0.3125 4 1 C3.67 1.99 3.34 2.98 3 4 C2.01 3.67 1.02 3.34 0 3 C-0.99 3 -1.98 3 -3 3 C-1.75 1.4375 -1.75 1.4375 0 0 Z " fill="#15538C" transform="translate(260,313)"/>
<path d="M0 0 C0.5625 1.9375 0.5625 1.9375 1 4 C0.67 4.33 0.34 4.66 0 5 C-0.36760731 7.32817964 -0.70241581 9.6618385 -1 12 C-1.33 12 -1.66 12 -2 12 C-2.05395478 10.37536158 -2.09277195 8.75021459 -2.125 7.125 C-2.14820313 6.22007812 -2.17140625 5.31515625 -2.1953125 4.3828125 C-2 2 -2 2 0 0 Z " fill="#04030C" transform="translate(436,276)"/>
<path d="M0 0 C0.66 0.33 1.32 0.66 2 1 C0.38405168 3.04119788 -1.2856382 5.04072937 -3 7 C-3.66 7 -4.32 7 -5 7 C-3.70700306 4.11562221 -2.34058637 2.12780579 0 0 Z " fill="#79797B" transform="translate(114,260)"/>
<path d="M0 0 C2.64 1.98 5.28 3.96 8 6 C7.34 6.66 6.68 7.32 6 8 C5.34 7.34 4.68 6.68 4 6 C3.29875 5.34 2.5975 4.68 1.875 4 C0 2 0 2 0 0 Z " fill="#6C92AF" transform="translate(250,208)"/>
<path d="M0 0 C0.928125 0.33 1.85625 0.66 2.8125 1 C5.92029291 2.14967004 5.92029291 2.14967004 9 2 C9 2.99 9 3.98 9 5 C4.68607774 4.5206753 2.83430453 3.2542015 0 0 Z " fill="#EBC799" transform="translate(266,207)"/>
<path d="M0 0 C0.66 0.33 1.32 0.66 2 1 C1.67 1.99 1.34 2.98 1 4 C-2.3 3.67 -5.6 3.34 -9 3 C-9 2.67 -9 2.34 -9 2 C-6.94921875 1.77213542 -4.8984375 1.54427083 -2.84765625 1.31640625 C-0.98859771 1.18113386 -0.98859771 1.18113386 0 0 Z " fill="#7B7A7F" transform="translate(387,296)"/>
<path d="M0 0 C1.32 0.33 2.64 0.66 4 1 C3.01 2.485 3.01 2.485 2 4 C-0.625 4.1875 -0.625 4.1875 -3 4 C-2.01 2.68 -1.02 1.36 0 0 Z " fill="#656666" transform="translate(277,233)"/>
<path d="M0 0 C0.66 0.99 1.32 1.98 2 3 C0.68 3.99 -0.64 4.98 -2 6 C-2.33 4.35 -2.66 2.7 -3 1 C-2.01 0.67 -1.02 0.34 0 0 Z " fill="#F1983B" transform="translate(292,189)"/>
<path d="M0 0 C3 1 3 1 3 1 Z " fill="#FFFFFF" transform="translate(408,309)"/>
<path d="M0 0 C0.33 0.66 0.66 1.32 1 2 C0.34 1.67 -0.32 1.34 -1 1 C-0.67 0.67 -0.34 0.34 0 0 Z " fill="#FFFFFF" transform="translate(392,308)"/>
<path d="" fill="#FFFFFF" transform="translate(0,0)"/>
<path d="" fill="#FFFFFF" transform="translate(0,0)"/>
<path d="" fill="#FFFFFF" transform="translate(0,0)"/>
<path d="" fill="#FFFFFF" transform="translate(0,0)"/>
<path d="" fill="#FFFFFF" transform="translate(0,0)"/>
<path d="" fill="#FFFFFF" transform="translate(0,0)"/>
<path d="" fill="#FFFFFF" transform="translate(0,0)"/>
<path d="" fill="#FFFFFF" transform="translate(0,0)"/>
<path d="" fill="#FFFFFF" transform="translate(0,0)"/>
<path d="" fill="#FFFFFF" transform="translate(0,0)"/>
<path d="" fill="#FFFFFF" transform="translate(0,0)"/>
<path d="" fill="#FFFFFF" transform="translate(0,0)"/>
<path d="" fill="#FFFFFF" transform="translate(0,0)"/>
<path d="" fill="#FFFFFF" transform="translate(0,0)"/>
<path d="" fill="#FFFFFF" transform="translate(0,0)"/>
<path d="" fill="#FFFFFF" transform="translate(0,0)"/>
<path d="" fill="#FFFFFF" transform="translate(0,0)"/>
<path d="" fill="#FFFFFF" transform="translate(0,0)"/>
<path d="" fill="#FFFFFF" transform="translate(0,0)"/>
<path d="" fill="#FFFFFF" transform="translate(0,0)"/>
<path d="" fill="#FFFFFF" transform="translate(0,0)"/>
<path d="" fill="#FFFFFF" transform="translate(0,0)"/>
<path d="" fill="#FFFFFF" transform="translate(0,0)"/>
<path d="" fill="#FFFFFF" transform="translate(0,0)"/>
<path d="" fill="#FFFFFF" transform="translate(0,0)"/>
<path d="" fill="#FFFFFF" transform="translate(0,0)"/>
<path d="" fill="#FFFFFF" transform="translate(0,0)"/>
<path d="" fill="#FFFFFF" transform="translate(0,0)"/>
<path d="" fill="#FFFFFF" transform="translate(0,0)"/>
<path d="" fill="#FFFFFF" transform="translate(0,0)"/>
<path d="" fill="#FFFFFF" transform="translate(0,0)"/>
<path d="" fill="#FFFFFF" transform="translate(0,0)"/>
<path d="" fill="#FFFFFF" transform="translate(0,0)"/>
<path d="" fill="#FFFFFF" transform="translate(0,0)"/>
<path d="" fill="#FFFFFF" transform="translate(0,0)"/>
<path d="" fill="#FFFFFF" transform="translate(0,0)"/>
<path d="" fill="#FFFFFF" transform="translate(0,0)"/>
<path d="" fill="#FFFFFF" transform="translate(0,0)"/>
<path d="" fill="#FFFFFF" transform="translate(0,0)"/>
<path d="" fill="#FFFFFF" transform="translate(0,0)"/>
<path d="" fill="#FFFFFF" transform="translate(0,0)"/>
<path d="" fill="#FFFFFF" transform="translate(0,0)"/>
<path d="" fill="#FFFFFF" transform="translate(0,0)"/>
<path d="" fill="#FFFFFF" transform="translate(0,0)"/>
<path d="" fill="#FFFFFF" transform="translate(0,0)"/>
<path d="" fill="#FFFFFF" transform="translate(0,0)"/>
<path d="" fill="#FFFFFF" transform="translate(0,0)"/>
<path d="" fill="#FFFFFF" transform="translate(0,0)"/>
<path d="" fill="#FFFFFF" transform="translate(0,0)"/>
<path d="" fill="#FFFFFF" transform="translate(0,0)"/>
<path d="" fill="#FFFFFF" transform="translate(0,0)"/>
<path d="" fill="#FFFFFF" transform="translate(0,0)"/>
<path d="" fill="#FFFFFF" transform="translate(0,0)"/>
<path d="" fill="#FFFFFF" transform="translate(0,0)"/>
<path d="" fill="#FFFFFF" transform="translate(0,0)"/>
<path d="" fill="#FFFFFF" transform="translate(0,0)"/>
<path d="" fill="#FFFFFF" transform="translate(0,0)"/>
<path d="" fill="#FFFFFF" transform="translate(0,0)"/>
<path d="" fill="#FFFFFF" transform="translate(0,0)"/>
<path d="" fill="#FFFFFF" transform="translate(0,0)"/>
<path d="" fill="#FFFFFF" transform="translate(0,0)"/>
<path d="" fill="#FFFFFF" transform="translate(0,0)"/>
</svg>
