<?xml version="1.0" encoding="UTF-8"?>
<svg version="1.1" xmlns="http://www.w3.org/2000/svg" width="48" height="48">
<path d="M0 0 C4.14902351 2.07451175 6.25069758 3.75502613 8 8 C9.53628199 15.25995207 6.98930262 20.62697759 3.57617188 26.86523438 C0.95809123 31.74120798 0.09462734 35.51161437 0 41 C-0.66 41 -1.32 41 -2 41 C-2 41.66 -2 42.32 -2 43 C-3.98 43 -5.96 43 -8 43 C-8 42.34 -8 41.68 -8 41 C-8.66 41 -9.32 41 -10 41 C-10.0309375 39.205625 -10.0309375 39.205625 -10.0625 37.375 C-10.53353279 32.70147158 -12.34277117 29.12265779 -14.5625 25.0625 C-17.62422415 19.34574688 -19.51809432 14.50270325 -18 8 C-13.98902931 -0.02194138 -8.43057162 -1.09038939 0 0 Z " fill="#F2E668" transform="translate(29,3)"/>
<path d="M0 0 C0.33 0.66 0.66 1.32 1 2 C0.10979194 3.72440965 -0.86390481 5.40607447 -1.875 7.0625 C-4.83270046 12.25216886 -5.80546134 16.06657072 -6 22 C-6.66 22 -7.32 22 -8 22 C-8 22.66 -8 23.32 -8 24 C-9.98 24 -11.96 24 -14 24 C-14 23.34 -14 22.68 -14 22 C-14.66 22 -15.32 22 -16 22 C-16.06058594 21.39671875 -16.12117188 20.7934375 -16.18359375 20.171875 C-16.26738281 19.37265625 -16.35117187 18.5734375 -16.4375 17.75 C-16.51871094 16.96109375 -16.59992187 16.1721875 -16.68359375 15.359375 C-16.97634993 13.17635361 -17.42064419 11.1226818 -18 9 C-17.30132813 8.89042969 -16.60265625 8.78085937 -15.8828125 8.66796875 C-14.97273438 8.50941406 -14.06265625 8.35085937 -13.125 8.1875 C-12.22007813 8.03667969 -11.31515625 7.88585937 -10.3828125 7.73046875 C-7.65587522 7.16948699 -7.65587522 7.16948699 -6 4 C-4.35857037 2.9590934 -2.69287785 1.95495674 -1 1 C-0.67 0.67 -0.34 0.34 0 0 Z " fill="#F0C570" transform="translate(35,22)"/>
<path d="M0 0 C0.66 0 1.32 0 2 0 C2 0.66 2 1.32 2 2 C3.98 2 5.96 2 8 2 C8 1.34 8 0.68 8 0 C8.66 0 9.32 0 10 0 C10 2.97 10 5.94 10 9 C9.34 9 8.68 9 8 9 C8 9.66 8 10.32 8 11 C6.02 11 4.04 11 2 11 C2 10.34 2 9.68 2 9 C1.34 9 0.68 9 0 9 C0 6.03 0 3.06 0 0 Z " fill="#777779" transform="translate(19,35)"/>
<path d="M0 0 C0.99 0.66 1.98 1.32 3 2 C2.67 3.32 2.34 4.64 2 6 C-3.94 6.495 -3.94 6.495 -10 7 C-10.33 5.68 -10.66 4.36 -11 3 C-7.18706566 0.30851694 -4.66510697 -0.50707684 0 0 Z " fill="#F8F2A2" transform="translate(27,5)"/>
<path d="M0 0 C1.2684375 -0.00773438 1.2684375 -0.00773438 2.5625 -0.015625 C5.13478811 0.26468845 6.7803108 0.9551813 9 2.25 C8.67 3.57 8.34 4.89 8 6.25 C7.29875 5.755 6.5975 5.26 5.875 4.75 C2.52269394 3.00097075 0.73275441 2.7834057 -3 3.25 C-7.19104954 5.1018591 -8.93366958 7.21573585 -11 11.25 C-11.391875 12.013125 -11.78375 12.77625 -12.1875 13.5625 C-12.5896875 14.3978125 -12.5896875 14.3978125 -13 15.25 C-13.45543387 9.55707666 -12.68246386 6.6484985 -9 2.25 C-5.9515467 0.32843221 -3.57648408 -0.02180783 0 0 Z " fill="#F2D568" transform="translate(24,2.75)"/>
<path d="M0 0 C0.33 0.66 0.66 1.32 1 2 C0.22265625 3.7265625 0.22265625 3.7265625 -0.9375 5.625 C-1.618125 6.73875 -2.29875 7.8525 -3 9 C-5.97 9 -8.94 9 -12 9 C-10.68 8.34 -9.36 7.68 -8 7 C-7.34 6.01 -6.68 5.02 -6 4 C-4.35857037 2.9590934 -2.69287785 1.95495674 -1 1 C-0.67 0.67 -0.34 0.34 0 0 Z " fill="#F2D280" transform="translate(35,22)"/>
<path d="M0 0 C1.32 0 2.64 0 4 0 C4 2.64 4 5.28 4 8 C2.68 8 1.36 8 0 8 C0 5.36 0 2.72 0 0 Z " fill="#9F9FA0" transform="translate(22,38)"/>
<path d="M0 0 C0.66 0 1.32 0 2 0 C2 0.66 2 1.32 2 2 C2.66 2.33 3.32 2.66 4 3 C3.67 5.64 3.34 8.28 3 11 C2.67 10.34 2.34 9.68 2 9 C1.34 9 0.68 9 0 9 C0 6.03 0 3.06 0 0 Z " fill="#666667" transform="translate(19,35)"/>
<path d="M0 0 C1.98 0 3.96 0 6 0 C6 1.32 6 2.64 6 4 C3.69 4 1.38 4 -1 4 C-0.67 2.68 -0.34 1.36 0 0 Z " fill="#FBF7CF" transform="translate(21,5)"/>
<path d="M0 0 C3.63 0 7.26 0 11 0 C10.01 0.495 10.01 0.495 9 1 C9 1.66 9 2.32 9 3 C7.02 3 5.04 3 3 3 C3 2.34 3 1.68 3 1 C2.01 0.67 1.02 0.34 0 0 Z " fill="#DCC28E" transform="translate(18,34)"/>
</svg>
