<?xml version="1.0" encoding="UTF-8"?>
<svg version="1.1" xmlns="http://www.w3.org/2000/svg" width="94" height="94">
<path d="M0 0 C0.804375 0.58652344 1.60875 1.17304688 2.4375 1.77734375 C5.1919269 4.16647318 6.80457272 6.45249651 8.6875 9.5625 C9.26886719 10.51253906 9.85023437 11.46257813 10.44921875 12.44140625 C10.96097656 13.28574219 11.47273438 14.13007813 12 15 C12.99 16.485 12.99 16.485 14 18 C17.62002575 28.86007724 14.79792328 41.61290863 11 52 C9.56012987 54.87974026 7.30729899 56.80806596 5 59 C4.33484375 59.64839844 3.6696875 60.29679687 2.984375 60.96484375 C-6.85502727 70.20218469 -16.29268198 72.61066425 -29.53125 72.33203125 C-39.67490079 71.8071362 -47.67357132 67.48362487 -54.84375 60.453125 C-62.76827322 51.43754424 -66.70310828 41.16044045 -66.34765625 29.15234375 C-64.87139764 15.7664932 -59.1432541 7.27026876 -49.19140625 -1.30078125 C-46.55532423 -3.34480207 -44.07744728 -4.73745753 -41 -6 C-41 -6.66 -41 -7.32 -41 -8 C-25.78653396 -9.59496015 -12.69146944 -9.44481447 0 0 Z " fill="#32A5F1" transform="translate(72,15)"/>
<path d="M0 0 C0.94875 0.70125 1.8975 1.4025 2.875 2.125 C3.57625 2.74375 4.2775 3.3625 5 4 C5 4.66 5 5.32 5 6 C1.05187949 4.561033 -2.31165619 2.65417751 -5.875 0.4375 C-12.02348105 -3.36097349 -12.02348105 -3.36097349 -19 -4 C-22.34177895 -2.03461238 -25.12832637 0.40930273 -28 3 C-28.84949219 3.7425 -29.69898438 4.485 -30.57421875 5.25 C-32.73361566 7.14837091 -34.87370598 9.06472057 -37 11 C-37.66 10.67 -38.32 10.34 -39 10 C-34.545 5.545 -34.545 5.545 -30 1 C-32.32374678 0.77051772 -32.32374678 0.77051772 -34.4609375 3.3359375 C-35.92940897 4.85255557 -37.3825723 6.38297724 -38.8359375 7.9140625 C-41.42115039 10.58357581 -43.6267329 12.47974616 -47 14 C-53.86329001 18.63531691 -59.51108555 22.96736736 -64 30 C-64.66 30 -65.32 30 -66 30 C-65.20613302 17.69506181 -61.11770281 9.42080833 -52 1 C-49.67390519 -0.74818305 -47.33434731 -2.33506971 -44.84765625 -3.84375 C-42.85726302 -4.99320088 -42.85726302 -4.99320088 -41 -7 C-27.01189224 -11.66270259 -11.67513981 -8.68847614 0 0 Z " fill="#90F6FE" transform="translate(72,15)"/>
<path d="M0 0 C1.15782198 3.38084018 0.83835147 5.29663219 -0.375 8.625 C-0.65085937 9.40101562 -0.92671875 10.17703125 -1.2109375 10.9765625 C-2.72720249 14.86480639 -5.01840448 17.16748426 -8 20 C-8.66515625 20.64839844 -9.3303125 21.29679687 -10.015625 21.96484375 C-19.85502727 31.20218469 -29.29268198 33.61066425 -42.53125 33.33203125 C-52.7704366 32.80219259 -60.65248589 28.41639631 -67.89453125 21.3515625 C-70.83680653 18.06538491 -72.99741732 14.93611079 -75 11 C-74.67 10.34 -74.34 9.68 -74 9 C-70 13.75 -70 13.75 -70 16 C-69.05125 16.268125 -68.1025 16.53625 -67.125 16.8125 C-64 18 -64 18 -62 21 C-59.50327771 22.41932965 -59.50327771 22.41932965 -56.625 23.625 C-55.66851562 24.05039063 -54.71203125 24.47578125 -53.7265625 24.9140625 C-51.4757581 25.81051468 -49.36291518 26.49606074 -47 27 C-47 27.66 -47 28.32 -47 29 C-46.01 28.79375 -45.02 28.5875 -44 28.375 C-40.94074484 27.90007531 -38.92341189 28.21112611 -36 29.1875 C-32.54333864 30.16279601 -32.12427322 30.05422831 -28.5625 28.5 C-27.36255552 27.68468783 -26.17574136 26.8498429 -25 26 C-24.32324219 25.57332031 -23.64648438 25.14664063 -22.94921875 24.70703125 C-20.57982306 23.20459029 -18.28890061 21.62251182 -16 20 C-15.0615625 19.34 -14.123125 18.68 -13.15625 18 C-6.3207687 12.85501407 -2.74521968 8.11432335 0 0 Z " fill="#4145DE" transform="translate(85,54)"/>
<path d="M0 0 C3.401685 1.33637625 5.43478846 2.43478846 8 5 C8.60401694 9.43207237 8.54057213 13.64856968 6.875 17.8125 C5.26832734 19.68695144 3.80061375 20.99561426 1.875 22.5 C-1.18181022 24.71580143 -1.18181022 24.71580143 -1.875 27.8125 C-1.91625 28.534375 -1.9575 29.25625 -2 30 C-4.31 30 -6.62 30 -9 30 C-9.39406435 27.29784447 -9.59036155 25.62438033 -9 23 C-7.32546484 20.81345159 -5.47386387 18.91052246 -3.55859375 16.93359375 C-1.68241074 14.95303249 -1.68241074 14.95303249 -1.5625 11.5 C-1.706875 10.675 -1.85125 9.85 -2 9 C-8.08408472 8.80185739 -8.08408472 8.80185739 -14 10 C-14 7.36 -14 4.72 -14 2 C-9.43103029 -0.64242257 -5.15722575 -0.54500651 0 0 Z " fill="#D9E1E7" transform="translate(51,26)"/>
<path d="M0 0 C-3.27161989 1.09053996 -3.84930516 0.86296605 -7 0 C-10.37116045 -0.32955254 -13.63475672 -0.4234786 -17 0 C-19.29215045 1.79191032 -19.29215045 1.79191032 -21 4 C-23.76089099 5.18323899 -26.35125973 5.91183228 -29.328125 6.31640625 C-38.26591541 7.61869166 -42.8746594 12.10152961 -48.3125 19.0625 C-50.5721071 22.22102437 -52.40287138 25.45082529 -54 29 C-55 27 -55 27 -54.5390625 24.96875 C-50.78112247 14.8191 -44.03725283 7.73159607 -34.84765625 2.15625 C-32.85726302 1.00679912 -32.85726302 1.00679912 -31 -1 C-21.41037434 -4.19654189 -9.32456832 -3.8852368 0 0 Z " fill="#C6FCFE" transform="translate(62,9)"/>
<path d="M0 0 C0.99 0.33 1.98 0.66 3 1 C-0.75028559 5.81265318 -4.59366405 9.58345714 -9.625 13.0625 C-14.27390737 16.28293652 -16.95606419 19.28680907 -20 24 C-20.66 24 -21.32 24 -22 24 C-21.45504195 17.32426387 -19.58090234 12.65681123 -14.875 7.8125 C-11.46387275 5.66200673 -7.98929037 4.30196142 -4.20703125 2.9296875 C-1.84780163 2.09923519 -1.84780163 2.09923519 0 0 Z " fill="#58E1FC" transform="translate(28,21)"/>
<path d="M0 0 C0.33 0 0.66 0 1 0 C1.17796409 10.67784529 1.17796409 10.67784529 -1.8828125 14.11328125 C-2.99269531 15.20189453 -2.99269531 15.20189453 -4.125 16.3125 C-7.55831595 19.90979066 -7.55831595 19.90979066 -8.0625 24.8125 C-7.46643361 26.60069916 -6.84268575 28.3820489 -6.125 30.125 C-6 32 -6 32 -8.0625 34.75 C-11 37 -11 37 -14.125 37.5 C-17.19735411 36.96567755 -18.16115216 36.45179712 -20 34 C-16.66666667 34 -13.33333333 34 -10 34 C-9.25042843 30.52852158 -9.25042843 30.52852158 -9 27 C-11.64 26.67 -14.28 26.34 -17 26 C-17.33 25.01 -17.66 24.02 -18 23 C-15.36 23 -12.72 23 -10 23 C-10.185625 21.4221875 -10.185625 21.4221875 -10.375 19.8125 C-10 16 -10 16 -7.1875 13.4375 C-6.6409375 13.04433594 -6.094375 12.65117188 -5.53125 12.24609375 C-1.80799172 9.21619735 -0.67186593 4.56868832 0 0 Z " fill="#1F72C8" transform="translate(60,34)"/>
<path d="M0 0 C0.66 0.33 1.32 0.66 2 1 C-4.92359314 6.7782086 -12.21311132 11.71435018 -20.640625 15.04296875 C-23.20377886 15.99049184 -23.20377886 15.99049184 -26 18 C-23.53953516 12.18435583 -18.52270544 6.14222895 -13 3 C-10.42876335 2.26076946 -7.91289243 1.76542126 -5.26953125 1.359375 C-2.84275496 1.03867559 -2.84275496 1.03867559 0 0 Z " fill="#8CF7FE" transform="translate(38,13)"/>
<path d="M0 0 C1 1 1 1 1.5 3.625 C0.77615482 8.51095499 -2.15014201 11.05599095 -6 14 C-6.66 14 -7.32 14 -8 14 C-8.50833591 12.75336669 -9.00631145 11.50250613 -9.5 10.25 C-9.7784375 9.55390625 -10.056875 8.8578125 -10.34375 8.140625 C-11 6 -11 6 -11 2 C-6.95807022 -0.69461986 -4.7948504 -0.23200889 0 0 Z " fill="#1A8CCF" transform="translate(49,34)"/>
<path d="M0 0 C1.70884005 1.62339805 3.37446717 3.29319053 5 5 C5 5.66 5 6.32 5 7 C5.94875 7.268125 6.8975 7.53625 7.875 7.8125 C11 9 11 9 13 12 C14.85259192 13.0370885 14.85259192 13.0370885 16.9375 13.875 C20.62129774 15.59989985 22.30623201 17.18902203 24 21 C23.34 21.33 22.68 21.66 22 22 C13.17936072 18.99967103 6.24455081 13.08788247 1.5 5.125 C0 2 0 2 0 0 Z " fill="#325ED3" transform="translate(10,63)"/>
<path d="M0 0 C1.15782198 3.38084018 0.83835147 5.29663219 -0.375 8.625 C-0.65085937 9.40101562 -0.92671875 10.17703125 -1.2109375 10.9765625 C-2.72720249 14.86480639 -5.01840448 17.16748426 -8 20 C-8.66515625 20.64839844 -9.3303125 21.29679687 -10.015625 21.96484375 C-14.75535193 26.41455242 -19.54870707 30.43343365 -26 32 C-27.32 31.67 -28.64 31.34 -30 31 C-27.36 30.34 -24.72 29.68 -22 29 C-22 28.34 -22 27.68 -22 27 C-21.01 27 -20.02 27 -19 27 C-19 26.34 -19 25.68 -19 25 C-17.49609375 23.58984375 -17.49609375 23.58984375 -15.4375 21.9375 C-8.19953716 15.75000257 -3.38272764 8.88753909 0 0 Z " fill="#4846DE" transform="translate(85,54)"/>
<path d="M0 0 C3.625 1.5 3.625 1.5 6 3 C6 3.99 6 4.98 6 6 C5.01 5.34 4.02 4.68 3 4 C2.67 4.33 2.34 4.66 2 5 C0.04583843 5.20999945 -1.91400299 5.36832634 -3.875 5.5 C-7.18718188 5.72347251 -9.84376196 5.94792065 -13 7 C-13.33 7.99 -13.66 8.98 -14 10 C-14 7.36 -14 4.72 -14 2 C-9.43794641 -0.6384227 -5.15064928 -0.55879686 0 0 Z " fill="#EFEBF0" transform="translate(51,26)"/>
<path d="M0 0 C0.625 2.875 0.625 2.875 1 6 C-1 8 -1 8 -4.5 8.25 C-8 8 -8 8 -10 6 C-10.3125 3.5 -10.3125 3.5 -10 1 C-6.1496895 -1.56687367 -4.41430237 -0.83288724 0 0 Z " fill="#E1E6F1" transform="translate(51,61)"/>
<path d="M0 0 C0.66 0.33 1.32 0.66 2 1 C0.38113585 2.67262717 -1.2452729 4.33795537 -2.875 6 C-4.23238281 7.3921875 -4.23238281 7.3921875 -5.6171875 8.8125 C-8 11 -8 11 -10 11 C-10 11.66 -10 12.32 -10 13 C-10.99 13 -11.98 13 -13 13 C-13 13.66 -13 14.32 -13 15 C-19.80122845 18.13902852 -25.56621057 18.33452052 -33 18 C-33 17.67 -33 17.34 -33 17 C-32.35933594 16.97421875 -31.71867187 16.9484375 -31.05859375 16.921875 C-25.12985118 16.533105 -20.92519045 15.40974723 -16 12 C-15.27941406 11.54238281 -14.55882813 11.08476563 -13.81640625 10.61328125 C-8.8505231 7.42272226 -4.39967677 3.93162605 0 0 Z " fill="#3B44EE" transform="translate(76,68)"/>
<path d="M0 0 C3.3 0 6.6 0 10 0 C10.144375 0.7425 10.28875 1.485 10.4375 2.25 C10.88539954 4.92785842 10.88539954 4.92785842 11.875 7 C12 9 12 9 9.9375 11.75 C7 14 7 14 3.875 14.5 C0.80264589 13.96567755 -0.16115216 13.45179712 -2 11 C1.33333333 11 4.66666667 11 8 11 C8.74957157 7.52852158 8.74957157 7.52852158 9 4 C6.36 3.67 3.72 3.34 1 3 C0.67 2.01 0.34 1.02 0 0 Z " fill="#2F6BDE" transform="translate(42,57)"/>
<path d="M0 0 C0.66 0.33 1.32 0.66 2 1 C0.68 2.32 -0.64 3.64 -2 5 C-2.66 4.67 -3.32 4.34 -4 4 C-2.68 2.68 -1.36 1.36 0 0 Z M-6 5 C-5.34 5.33 -4.68 5.66 -4 6 C-5.24676853 7.27400377 -6.4975648 8.54406654 -7.75 9.8125 C-8.44609375 10.52019531 -9.1421875 11.22789063 -9.859375 11.95703125 C-11.81428645 13.82275879 -13.80338553 15.43169642 -16 17 C-16.66 16.67 -17.32 16.34 -18 16 C-16.75323147 14.72599623 -15.5024352 13.45593346 -14.25 12.1875 C-13.55390625 11.47980469 -12.8578125 10.77210937 -12.140625 10.04296875 C-10.18571355 8.17724121 -8.19661447 6.56830358 -6 5 Z " fill="#77EFFE" transform="translate(51,9)"/>
<path d="M0 0 C0.33 0.66 0.66 1.32 1 2 C1.99 2 2.98 2 4 2 C4 2.66 4 3.32 4 4 C4.66 4 5.32 4 6 4 C9 9.75 9 9.75 9 12 C6.56561796 11.60987467 5.28014242 11.28087964 3.515625 9.51171875 C2.88914062 8.60873047 2.88914062 8.60873047 2.25 7.6875 C1.82203125 7.09324219 1.3940625 6.49898438 0.953125 5.88671875 C0 4 0 4 0 0 Z " fill="#1D8BE0" transform="translate(10,59)"/>
<path d="M0 0 C2.97 0.495 2.97 0.495 6 1 C4.48881612 4.02236775 2.07174387 4.56873062 -0.9375 6 C-5.30708869 8.01949369 -5.30708869 8.01949369 -9 11 C-9.99 10.67 -10.98 10.34 -12 10 C-4 4 -4 4 -1.734375 2.36328125 C-1.16203125 1.91339844 -0.5896875 1.46351562 0 1 C0 0.67 0 0.34 0 0 Z " fill="#E0FDFE" transform="translate(31,7)"/>
<path d="M0 0 C1.70884005 1.62339805 3.37446717 3.29319053 5 5 C5 5.66 5 6.32 5 7 C5.928125 7.226875 6.85625 7.45375 7.8125 7.6875 C11.50719183 9.2088437 12.32482761 10.46352496 14 14 C9.94918407 13.37679755 7.18341074 11.52020017 4 9 C2.00706624 6.26124441 0 3.48366362 0 0 Z " fill="#246BDA" transform="translate(10,63)"/>
<path d="M0 0 C0.66 0.33 1.32 0.66 2 1 C-1.20458392 4.64742843 -4.79956975 6.64072424 -9.125 8.6875 C-9.75792969 8.99494141 -10.39085937 9.30238281 -11.04296875 9.61914062 C-12.6921855 10.41923835 -14.34581705 11.21022092 -16 12 C-16.99 12.495 -16.99 12.495 -18 13 C-16.70248606 9.10745818 -15.40945858 8.29616598 -12 6 C-9.4284461 4.88808597 -6.84056284 3.88518172 -4.20703125 2.9296875 C-1.84780163 2.09923519 -1.84780163 2.09923519 0 0 Z " fill="#75EEFE" transform="translate(28,21)"/>
<path d="M0 0 C6.50149439 1.58040279 11.27463081 3.15027899 16 8 C16 8.66 16 9.32 16 10 C12.06342758 8.56786488 8.71068644 6.69667846 5.1875 4.4375 C4.21167969 3.81746094 3.23585938 3.19742187 2.23046875 2.55859375 C1.49441406 2.04425781 0.75835937 1.52992187 0 1 C0 0.67 0 0.34 0 0 Z " fill="#7CE6FD" transform="translate(61,11)"/>
<path d="M0 0 C0.99 0.99 1.98 1.98 3 3 C-3.80122845 6.13902852 -9.56621057 6.33452052 -17 6 C-17 5.67 -17 5.34 -17 5 C-16.03900391 4.96132812 -16.03900391 4.96132812 -15.05859375 4.921875 C-8.9410516 4.5207247 -5.0874978 3.42853112 0 0 Z " fill="#3C39E7" transform="translate(60,80)"/>
<path d="M0 0 C0 3 0 3 -1.75 4.82421875 C-2.4925 5.43910156 -3.235 6.05398437 -4 6.6875 C-4.7425 7.31011719 -5.485 7.93273437 -6.25 8.57421875 C-6.8275 9.04472656 -7.405 9.51523437 -8 10 C-8.99 9.01 -9.98 8.02 -11 7 C-10.37351562 6.66226562 -9.74703125 6.32453125 -9.1015625 5.9765625 C-8.28429687 5.53054687 -7.46703125 5.08453125 -6.625 4.625 C-5.40683594 3.96371094 -5.40683594 3.96371094 -4.1640625 3.2890625 C-1.89185698 2.0556107 -1.89185698 2.0556107 0 0 Z " fill="#63E7FE" transform="translate(29,22)"/>
<path d="M0 0 C-1.44632813 0.81404297 -1.44632813 0.81404297 -2.921875 1.64453125 C-4.19799877 2.3670425 -5.47403588 3.08970683 -6.75 3.8125 C-7.70132812 4.34713867 -7.70132812 4.34713867 -8.671875 4.89257812 C-11.94804537 6.75248735 -15.04985101 8.63839084 -18 11 C-15.78395903 6.00580035 -12.07948254 2.36659767 -7.0546875 0.13671875 C-2.51732513 -1.25866256 -2.51732513 -1.25866256 0 0 Z " fill="#A4FDFE" transform="translate(34,15)"/>
<path d="M0 0 C-3.3730619 2.96829447 -6.62968884 4.06350475 -11 5 C-13.4375 4.625 -13.4375 4.625 -15 4 C-9.60931587 0.40621058 -6.46326465 -0.45356243 0 0 Z " fill="#BEFEFE" transform="translate(45,8)"/>
<path d="M0 0 C0.185625 0.639375 0.37125 1.27875 0.5625 1.9375 C1.94246056 4.42126213 1.94246056 4.42126213 5.625 4.75 C6.73875 4.8325 7.8525 4.915 9 5 C9 3.35 9 1.7 9 0 C9.33 0 9.66 0 10 0 C10 1.98 10 3.96 10 6 C7.36 6 4.72 6 2 6 C2.66 7.32 3.32 8.64 4 10 C3.01 10.33 2.02 10.66 1 11 C1 9.35 1 7.7 1 6 C0.34 5.67 -0.32 5.34 -1 5 C-0.67 3.35 -0.34 1.7 0 0 Z " fill="#4796D8" transform="translate(40,51)"/>
<path d="M0 0 C0.66 0.33 1.32 0.66 2 1 C2.05418326 3.08304538 2.09287551 5.16649768 2.125 7.25 C2.14820312 8.41015625 2.17140625 9.5703125 2.1953125 10.765625 C2.0103949 13.82786046 1.60823023 15.44202751 0 18 C-0.66 17.67 -1.32 17.34 -2 17 C-1.67 16.05125 -1.34 15.1025 -1 14.125 C0.3644458 9.44552744 0.17499341 4.83176241 0 0 Z " fill="#3777E3" transform="translate(85,39)"/>
<path d="M0 0 C0.33 0 0.66 0 1 0 C1.15662651 9.39759036 1.15662651 9.39759036 0 12 C-2.0625 13.75 -2.0625 13.75 -4 15 C-3.32584613 9.7415998 -1.75734451 4.97361654 0 0 Z " fill="#1D86D1" transform="translate(60,34)"/>
<path d="M0 0 C1 1 1 1 1.0625 3.5625 C1.041875 4.366875 1.02125 5.17125 1 6 C0.319375 5.505 -0.36125 5.01 -1.0625 4.5 C-4.59465009 2.69634889 -7.08636991 2.76978647 -11 3 C-8.21243212 -1.18135182 -4.54506371 -0.29322992 0 0 Z " fill="#20568E" transform="translate(49,34)"/>
<path d="M0 0 C2.97 0.33 5.94 0.66 9 1 C9.33 2.32 9.66 3.64 10 5 C8.51800098 4.55090939 7.03944764 4.09043436 5.5625 3.625 C4.73878906 3.36976562 3.91507813 3.11453125 3.06640625 2.8515625 C1 2 1 2 0 0 Z " fill="#3F53CD" transform="translate(24,80)"/>
<path d="M0 0 C1.80859375 0.55859375 1.80859375 0.55859375 3.30859375 2.62109375 C3.47359375 3.26046875 3.63859375 3.89984375 3.80859375 4.55859375 C2.81859375 5.21859375 1.82859375 5.87859375 0.80859375 6.55859375 C0.47859375 5.23859375 0.14859375 3.91859375 -0.19140625 2.55859375 C-3.16140625 2.22859375 -6.13140625 1.89859375 -9.19140625 1.55859375 C-5.55044831 -0.86871154 -4.13925699 -0.61519232 0 0 Z " fill="#1970B0" transform="translate(46.19140625,36.44140625)"/>
<path d="M0 0 C1.15782198 3.38084018 0.83835147 5.29663219 -0.375 8.625 C-0.65085937 9.40101562 -0.92671875 10.17703125 -1.2109375 10.9765625 C-2 13 -2 13 -3 15 C-3.33 14.67 -3.66 14.34 -4 14 C-3.57823401 8.72792514 -2.21534483 4.71964769 0 0 Z " fill="#5366DB" transform="translate(85,54)"/>
<path d="M0 0 C2.64 0 5.28 0 8 0 C8 0.99 8 1.98 8 3 C5.69 3 3.38 3 1 3 C0.67 2.01 0.34 1.02 0 0 Z " fill="#1B56BC" transform="translate(42,57)"/>
<path d="M0 0 C2.97 0.495 2.97 0.495 6 1 C6 1.66 6 2.32 6 3 C6.99 3.33 7.98 3.66 9 4 C6.36 4 3.72 4 1 4 C0.67 2.68 0.34 1.36 0 0 Z " fill="#314EE6" transform="translate(32,80)"/>
<path d="M0 0 C3.53586014 3.17320782 5.58578031 5.16743695 6 10 C2.51668565 6.98112756 1.20842856 4.43090471 0 0 Z " fill="#367ECE" transform="translate(10,63)"/>
<path d="M0 0 C4.95 0 9.9 0 15 0 C15 0.33 15 0.66 15 1 C10.05 1 5.1 1 0 1 C0 0.67 0 0.34 0 0 Z " fill="#3A37DA" transform="translate(39,88)"/>
<path d="M0 0 C0.33 0 0.66 0 1 0 C1 3.96 1 7.92 1 12 C0.67 12 0.34 12 0 12 C0 8.04 0 4.08 0 0 Z " fill="#387BE2" transform="translate(88,41)"/>
<path d="M0 0 C0.33 0 0.66 0 1 0 C1 3.96 1 7.92 1 12 C0.67 12 0.34 12 0 12 C0 8.04 0 4.08 0 0 Z " fill="#44C3ED" transform="translate(4,41)"/>
<path d="M0 0 C0 3 0 3 -1.5 4.6875 C-1.995 5.120625 -2.49 5.55375 -3 6 C-3.66 5.67 -4.32 5.34 -5 5 C-3.35 3.35 -1.7 1.7 0 0 Z " fill="#4541DC" transform="translate(78,73)"/>
<path d="M0 0 C1.98 0 3.96 0 6 0 C6 0.33 6 0.66 6 1 C4.02 1 2.04 1 0 1 C0 0.67 0 0.34 0 0 Z " fill="#B1FDFE" transform="translate(49,5)"/>
<path d="M0 0 C1.98 0 3.96 0 6 0 C6 0.33 6 0.66 6 1 C4.02 1 2.04 1 0 1 C0 0.67 0 0.34 0 0 Z " fill="#CCFEFE" transform="translate(38,5)"/>
<path d="M0 0 C1.65 0 3.3 0 5 0 C5 0.33 5 0.66 5 1 C3.35 1 1.7 1 0 1 C0 0.67 0 0.34 0 0 Z " fill="#E0FDFE" transform="translate(44,4)"/>
<path d="M0 0 C4 1 4 1 4 1 Z " fill="#4035DF" transform="translate(55,87)"/>
<path d="M0 0 C1 4 1 4 1 4 Z " fill="#3B65E2" transform="translate(87,54)"/>
<path d="M0 0 C1 4 1 4 1 4 Z " fill="#2DA8E1" transform="translate(5,53)"/>
<path d="M0 0 C1 4 1 4 1 4 Z " fill="#2D9CEB" transform="translate(87,36)"/>
<path d="M0 0 C1 4 1 4 1 4 Z " fill="#76E3FD" transform="translate(5,37)"/>
<path d="M0 0 C0 3 0 3 0 3 Z " fill="#D7FEFE" transform="translate(16,17)"/>
<path d="M0 0 C0.66 0.33 1.32 0.66 2 1 C1.01 1 0.02 1 -1 1 C-0.67 0.67 -0.34 0.34 0 0 Z " fill="#DFFEFE" transform="translate(18,15)"/>
<path d="M0 0 C0.99 0.33 1.98 0.66 3 1 C2.01 1 1.02 1 0 1 C0 0.67 0 0.34 0 0 Z " fill="#76E0FD" transform="translate(72,14)"/>
<path d="M0 0 C3 1 3 1 3 1 Z " fill="#353FD5" transform="translate(35,87)"/>
<path d="M0 0 C3 1 3 1 3 1 Z " fill="#493DDB" transform="translate(59,86)"/>
<path d="" fill="#385AE1" transform="translate(0,0)"/>
<path d="" fill="#A5F2FE" transform="translate(0,0)"/>
<path d="M0 0 C3 1 3 1 3 1 Z " fill="#A9FCFE" transform="translate(56,6)"/>
<path d="M0 0 C3 1 3 1 3 1 Z " fill="#DAFEFE" transform="translate(34,6)"/>
<path d="M0 0 C2 1 2 1 2 1 Z " fill="#3743CF" transform="translate(32,86)"/>
<path d="M0 0 C2 1 2 1 2 1 Z " fill="#5345D8" transform="translate(62,85)"/>
<path d="M0 0 C2 1 2 1 2 1 Z " fill="#1E30D8" transform="translate(30,85)"/>
<path d="M0 0 C2 1 2 1 2 1 Z " fill="#4439DD" transform="translate(64,84)"/>
<path d="M0 0 C2 1 2 1 2 1 Z " fill="#394CC8" transform="translate(27,84)"/>
<path d="M0 0 C2 1 2 1 2 1 Z " fill="#4B3ED9" transform="translate(66,83)"/>
<path d="M0 0 C2 1 2 1 2 1 Z " fill="#473DDB" transform="translate(69,81)"/>
<path d="M0 0 C2 1 2 1 2 1 Z " fill="#3451C5" transform="translate(22,81)"/>
<path d="" fill="#246DCF" transform="translate(0,0)"/>
<path d="" fill="#4D51DA" transform="translate(0,0)"/>
<path d="" fill="#2C7BCF" transform="translate(0,0)"/>
<path d="" fill="#187CD7" transform="translate(0,0)"/>
<path d="" fill="#4B57DC" transform="translate(0,0)"/>
<path d="" fill="#298AD4" transform="translate(0,0)"/>
<path d="" fill="#445ADE" transform="translate(0,0)"/>
<path d="" fill="#2D93D7" transform="translate(0,0)"/>
<path d="" fill="#279DDB" transform="translate(0,0)"/>
<path d="" fill="#47BAF1" transform="translate(0,0)"/>
<path d="" fill="#B0F6FE" transform="translate(0,0)"/>
<path d="" fill="#AEF8FE" transform="translate(0,0)"/>
<path d="" fill="#68C8F5" transform="translate(0,0)"/>
<path d="" fill="#85D1F7" transform="translate(0,0)"/>
<path d="" fill="#71CEF9" transform="translate(0,0)"/>
<path d="" fill="#64D2FC" transform="translate(0,0)"/>
<path d="M0 0 C2 1 2 1 2 1 Z " fill="#DBFEFE" transform="translate(22,12)"/>
<path d="M0 0 C2 1 2 1 2 1 Z " fill="#5CE8FE" transform="translate(66,10)"/>
<path d="M0 0 C2 1 2 1 2 1 Z " fill="#E3FEFE" transform="translate(25,10)"/>
<path d="M0 0 C2 1 2 1 2 1 Z " fill="#7EF1FE" transform="translate(64,9)"/>
<path d="M0 0 C2 1 2 1 2 1 Z " fill="#DBFEFD" transform="translate(27,9)"/>
<path d="M0 0 C2 1 2 1 2 1 Z " fill="#AFF8FE" transform="translate(62,8)"/>
<path d="M0 0 C2 1 2 1 2 1 Z " fill="#E5FDFE" transform="translate(29,8)"/>
<path d="M0 0 C2 1 2 1 2 1 Z " fill="#B7FBFE" transform="translate(60,7)"/>
<path d="" fill="#334BC7" transform="translate(0,0)"/>
<path d="" fill="#5548D7" transform="translate(0,0)"/>
<path d="" fill="#4558C1" transform="translate(0,0)"/>
<path d="" fill="#4C42D8" transform="translate(0,0)"/>
<path d="" fill="#3C57C0" transform="translate(0,0)"/>
<path d="" fill="#4139DB" transform="translate(0,0)"/>
<path d="" fill="#3957C3" transform="translate(0,0)"/>
<path d="" fill="#355AC4" transform="translate(0,0)"/>
<path d="" fill="#2A54C6" transform="translate(0,0)"/>
<path d="" fill="#2054C8" transform="translate(0,0)"/>
<path d="" fill="#2459C8" transform="translate(0,0)"/>
<path d="" fill="#3365C7" transform="translate(0,0)"/>
<path d="" fill="#3C6DC7" transform="translate(0,0)"/>
<path d="" fill="#4546DB" transform="translate(0,0)"/>
<path d="" fill="#376CC6" transform="translate(0,0)"/>
<path d="" fill="#5452D8" transform="translate(0,0)"/>
<path d="" fill="#377ACC" transform="translate(0,0)"/>
<path d="" fill="#4B55DC" transform="translate(0,0)"/>
<path d="" fill="#CAFEFE" transform="translate(0,0)"/>
<path d="" fill="#96D7FA" transform="translate(0,0)"/>
<path d="" fill="#D9FEFF" transform="translate(0,0)"/>
<path d="" fill="#D0FEFE" transform="translate(0,0)"/>
<path d="" fill="#8DD7FB" transform="translate(0,0)"/>
<path d="" fill="#DCFEFF" transform="translate(0,0)"/>
<path d="" fill="#5FCEFA" transform="translate(0,0)"/>
<path d="" fill="#DDFEFE" transform="translate(0,0)"/>
<path d="" fill="#D9FEFF" transform="translate(0,0)"/>
<path d="" fill="#ACE4FE" transform="translate(0,0)"/>
<path d="" fill="#A6E4FE" transform="translate(0,0)"/>
<path d="" fill="#ACE6FE" transform="translate(0,0)"/>
<path d="" fill="#E4FEFE" transform="translate(0,0)"/>
<path d="" fill="#8BE7FE" transform="translate(0,0)"/>
<path d="" fill="#E6FDFE" transform="translate(0,0)"/>
<path d="" fill="#A3ECFD" transform="translate(0,0)"/>
<path d="" fill="#9FF0FE" transform="translate(0,0)"/>
<path d="" fill="#E6FEFE" transform="translate(0,0)"/>
</svg>
